<svg width="210" height="54" viewBox="0 0 210 54" fill="none" xmlns="http://www.w3.org/2000/svg">
<g clip-path="url(#clip0_16_1290)">
<path d="M20.154 33.4803C10.7575 33.4803 7.11549 26.9198 7.06314 20.6317C7.00706 14.2877 10.9743 7.45851 20.154 7.45851C23.4669 7.45851 26.8359 8.59671 29.3337 11.0373L34.1124 6.42854C30.2012 2.57734 25.3141 0.62561 20.154 0.62561C6.40879 0.62561 -0.0525214 10.7089 -0.000172797 20.6317C0.055915 30.4986 6.03113 40.2012 20.154 40.2012C25.6394 40.2012 30.691 38.4137 34.6022 34.5625L29.7151 29.6291C27.2173 32.1219 23.4669 33.4765 20.154 33.4765V33.4803Z" fill="#FB5D6B"/>
<path d="M58.0134 16.2917C56.4916 13.6346 53.0702 11.9553 49.4843 11.9553C41.662 11.8993 35.5222 16.7245 35.5222 25.9421C35.5222 35.1596 41.389 40.2012 49.3198 40.1452C52.3074 40.0893 56.4916 38.5742 58.0097 35.4283L58.335 39.3317H64.5831V12.6084H58.2265L58.0097 16.2954L58.0134 16.2917ZM50.0826 34.0736C45.6816 34.0736 42.1518 31.0359 42.1518 25.9421C42.1518 20.8482 45.6816 17.8627 50.0826 17.8627C60.5112 17.8627 60.5112 34.0736 50.0826 34.0736Z" fill="#FB5D6B"/>
<path d="M76.8066 15.6983L76.3167 12.6084H70.177V39.3317H76.8028V25.2368C76.8028 20.3033 80.0073 18.4598 83.4848 18.4598C85.6572 18.4598 86.9061 19.0569 88.2634 20.1951L91.251 14.4482C89.7853 12.9853 87.123 11.8994 84.3522 11.8994C81.5815 11.8994 78.8669 12.3882 76.8028 15.6946L76.8066 15.6983Z" fill="#FB5D6B"/>
<path d="M106.354 12.0635C97.8245 12.0635 92.5037 18.3516 92.5037 25.998C92.5037 33.6445 97.7198 39.9325 106.41 39.9325C115.1 39.9325 120.372 33.6967 120.372 25.998C120.372 18.2994 114.886 12.0635 106.357 12.0635H106.354ZM106.41 33.8572C101.575 33.8572 99.1295 30.0619 99.1295 25.998C99.1295 21.9341 101.627 18.0829 106.41 18.0829C110.863 18.0829 113.69 21.9864 113.69 25.998C113.69 30.0097 111.244 33.8572 106.41 33.8572Z" fill="#FB5D6B"/>
<path d="M131.503 1.43915H124.93V39.3354H131.503V1.43915Z" fill="#FB5D6B"/>
<path d="M154.137 33.2041C154.896 33.4056 155.625 33.6445 156.324 33.9057V25.6696C156.324 21.602 159.095 18.1874 163.167 18.1874C167.239 18.1874 169.632 21.2773 169.632 25.345V39.3317H176.258V25.289C176.258 16.885 171.206 12.168 164.905 12.168C161.536 12.168 158.822 13.5227 156.107 16.1797L155.673 12.5487H149.75V32.9168C150.248 32.8309 150.764 32.7862 151.306 32.7862C152.162 32.7862 153.112 32.9242 154.137 33.2004V33.2041Z" fill="#FB5D6B"/>
<path d="M143.648 39.2795C143.648 38.7309 143.749 38.1711 143.94 37.6114V12.4964H137.314V39.3317H143.652C143.652 39.3317 143.652 39.2981 143.652 39.2795H143.648Z" fill="#FB5D6B"/>
<path d="M144.538 5.07016C144.538 -0.0797029 136.716 -0.0797029 136.716 5.07016C136.716 10.22 144.538 10.22 144.538 5.07016Z" fill="#FB5D6B"/>
<path d="M158.474 39.578C158.829 38.8951 159.237 38.298 159.693 37.783C159.835 37.839 160.145 37.9882 160.624 38.2308C161.103 38.4734 161.697 38.7309 162.411 38.9996C163.125 39.272 163.896 39.4772 164.722 39.619C164.823 39.634 164.917 39.6452 165.01 39.6526C165.103 39.6601 165.193 39.6638 165.279 39.6638C165.863 39.6638 166.364 39.5332 166.779 39.2683C167.194 39.0033 167.429 38.6824 167.485 38.298C167.5 38.2569 167.508 38.2122 167.508 38.1711V38.0442C167.508 37.8875 167.47 37.8091 167.399 37.8091C167.298 37.8091 167.194 37.9435 167.078 38.2159C166.951 38.4883 166.734 38.6712 166.435 38.7719C166.135 38.8727 165.799 38.9212 165.429 38.9212C164.988 38.9212 164.505 38.869 163.985 38.7607C163.466 38.6525 162.946 38.5144 162.434 38.3428C161.921 38.1711 161.454 37.9994 161.032 37.8315C160.609 37.6599 160.272 37.5106 160.014 37.3837C160.142 37.2717 160.291 37.1635 160.463 37.0628C160.635 36.962 160.811 36.9135 160.998 36.9135C161.11 36.9135 161.218 36.9359 161.319 36.9769C161.432 37.1038 161.518 37.171 161.577 37.171C161.663 37.171 161.705 37.1075 161.705 36.9769C161.705 36.8762 161.671 36.7792 161.607 36.6784C161.544 36.5776 161.447 36.5067 161.319 36.4657C161.147 36.4246 160.998 36.4022 160.871 36.4022C160.516 36.4022 160.22 36.4955 159.992 36.6784C159.764 36.865 159.599 37.0143 159.498 37.1262C158.84 36.712 158.014 36.2754 157.016 35.8126C156.017 35.3499 154.925 34.9618 153.74 34.6483C152.843 34.4057 152.028 34.2863 151.302 34.2863C150.345 34.2863 149.489 34.4393 148.733 34.7453C147.978 35.0513 147.331 35.4506 146.796 35.9395C146.262 36.4321 145.85 36.9732 145.566 37.5628C145.282 38.1524 145.14 38.7271 145.14 39.2832C145.14 39.7683 145.252 40.2199 145.484 40.6378C145.712 41.0595 146.064 41.4028 146.531 41.6753C146.789 41.8171 147.062 41.9253 147.354 41.9962C147.645 42.0671 147.941 42.1044 148.24 42.1044C148.954 42.1044 149.634 41.9104 150.285 41.5185C150.936 41.1267 151.366 40.5595 151.579 39.8206C151.62 39.6937 151.642 39.5929 151.642 39.522C151.642 39.4213 151.613 39.3727 151.556 39.3727C151.5 39.3727 151.429 39.425 151.343 39.5332C151.257 39.6414 151.216 39.7646 151.216 39.9064C151.216 40.0482 151.085 40.2572 150.82 40.5371C150.554 40.8132 150.203 41.067 149.762 41.2946C149.32 41.5223 148.827 41.6379 148.285 41.6379C148.042 41.6379 147.787 41.6044 147.526 41.5297C147.26 41.4588 147.002 41.3431 146.744 41.1864C146.318 40.9289 146.101 40.5035 146.101 39.9064C146.101 39.4511 146.236 38.9622 146.509 38.4435C146.778 37.9248 147.17 37.4322 147.686 36.9695C148.199 36.5067 148.827 36.1261 149.571 35.8275C150.311 35.529 151.153 35.3797 152.095 35.3797C152.293 35.3797 152.502 35.3872 152.716 35.4021C152.929 35.417 153.142 35.4394 153.359 35.4656C154.413 35.6074 155.426 35.8723 156.399 36.2567C157.367 36.6411 158.309 37.0628 159.222 37.518C159.121 37.6337 158.949 37.8688 158.709 38.2345C158.466 38.5965 158.197 39.0443 157.898 39.5705C157.599 40.0967 157.292 40.6677 156.978 41.2797C156.664 41.8917 156.38 42.5037 156.122 43.1157C155.808 43.0597 155.49 43.0112 155.168 42.9776C154.847 42.9441 154.529 42.9254 154.215 42.9254C153.475 42.9254 152.802 43.0597 152.203 43.3322C151.605 43.6046 151.134 44.1158 150.79 44.8697C150.749 44.9555 150.741 45.0339 150.767 45.1048C150.797 45.1757 150.839 45.213 150.895 45.213C150.966 45.213 151.044 45.1645 151.13 45.0637C151.373 44.7204 151.691 44.4704 152.084 44.3062C152.476 44.142 152.895 44.0375 153.347 43.9852C153.796 43.9367 154.215 43.9106 154.6 43.9106C154.858 43.9106 155.094 43.9106 155.307 43.9218C155.52 43.9293 155.684 43.933 155.8 43.933C155.299 45.0712 154.724 46.1497 154.065 47.1684C153.407 48.1872 152.671 49.0866 151.852 49.8703C151.033 50.6539 150.128 51.2697 149.145 51.7175C148.161 52.1653 147.092 52.3892 145.936 52.3892C145.207 52.3892 144.448 52.2698 143.659 52.0272C142.867 51.7847 142.137 51.4301 141.464 50.9599C140.795 50.4897 140.249 49.9038 139.827 49.1985C139.404 48.4932 139.195 47.6797 139.195 46.7542C139.195 46.5975 139.202 46.4333 139.217 46.2616C139.232 46.09 139.251 45.9183 139.281 45.7504C139.408 45.0227 139.651 44.4778 140.01 44.1046C140.365 43.7352 140.679 43.4553 140.952 43.2725C141.195 43.1157 141.397 42.9702 141.562 42.8358C141.726 42.7015 141.756 42.6343 141.659 42.6343C141.618 42.6343 141.517 42.6567 141.36 42.6978C141.147 42.7537 140.889 42.8844 140.589 43.0821C140.29 43.2799 140.006 43.5374 139.733 43.8509C139.46 44.1644 139.255 44.5263 139.112 44.9406C138.854 45.7242 138.727 46.4855 138.727 47.2244C138.727 48.4074 139.03 49.4635 139.636 50.3964C140.242 51.3294 141.079 52.0608 142.149 52.5945C143.218 53.1281 144.445 53.3968 145.828 53.3968C147.211 53.3968 148.423 53.2027 149.466 52.8184C150.506 52.434 151.411 51.9115 152.173 51.2473C152.936 50.5868 153.594 49.8441 154.14 49.0269C154.69 48.2096 155.157 47.3662 155.542 46.4967C155.928 45.6272 156.272 44.7876 156.571 43.9778C156.784 44.0076 157.042 44.0263 157.341 44.0412C157.64 44.0561 157.954 44.0636 158.283 44.0636C158.825 44.0636 159.349 44.0487 159.857 44.0225C160.362 43.9927 160.725 43.9516 160.938 43.8957C161.267 43.8098 161.432 43.7165 161.432 43.6195C161.432 43.5225 161.29 43.4702 161.005 43.4702H160.878C160.736 43.4702 160.568 43.4702 160.377 43.4814C160.183 43.4889 159.973 43.4926 159.745 43.4926C159.289 43.4926 158.799 43.4814 158.279 43.459C157.76 43.4367 157.277 43.3993 156.836 43.3434C157.049 42.8732 157.289 42.3059 157.554 41.6342C157.82 40.9662 158.13 40.287 158.485 39.6041L158.474 39.578Z" fill="#FB5D6B"/>
<path d="M165.537 40.4326C165.324 40.6304 165.216 40.8655 165.216 41.1379C165.216 41.3506 165.283 41.5335 165.418 41.6827C165.552 41.832 165.728 41.9066 165.941 41.9066C166.225 41.9066 166.476 41.7984 166.689 41.5857C166.902 41.373 167.011 41.1304 167.011 40.858C167.011 40.6602 166.94 40.4886 166.797 40.3467C166.655 40.2049 166.468 40.134 166.24 40.134C165.982 40.134 165.747 40.2348 165.534 40.4326H165.537Z" fill="#FB5D6B"/>
<path d="M209.97 46.3587C209.933 46.3102 209.88 46.284 209.809 46.284C209.753 46.284 209.701 46.3213 209.66 46.3923C209.387 46.9632 209.106 47.5043 208.815 48.0156C208.523 48.5268 208.261 48.9261 208.033 49.2098C207.805 49.4934 207.543 49.7322 207.252 49.9263C206.96 50.1203 206.65 50.2136 206.32 50.2136H206.257C206.227 50.2136 206.178 50.2061 206.107 50.1912L205.958 50.1688C206.399 49.8852 206.762 49.5046 207.05 49.0269C207.334 48.5492 207.476 48.0977 207.476 47.6723C207.476 47.2468 207.386 46.8177 207.207 46.4333C207.027 46.0489 206.859 45.6571 206.702 45.2578C206.631 45.0712 206.571 44.8622 206.519 44.6271C206.47 44.392 206.444 44.1606 206.444 43.933C206.444 43.6494 206.496 43.377 206.605 43.1232C206.713 42.8657 206.9 42.6679 207.173 42.5261C207.244 42.4851 207.323 42.4627 207.409 42.4627C207.536 42.4627 207.685 42.5 207.857 42.5709C207.928 42.612 207.984 42.6343 208.029 42.6343C208.13 42.6343 208.179 42.5933 208.179 42.5075C208.179 42.3657 208.1 42.2574 207.943 42.1865C207.842 42.1455 207.745 42.1156 207.655 42.1007C207.562 42.0858 207.461 42.0783 207.345 42.0783H207.132C206.762 42.1343 206.421 42.3545 206.115 42.7388C205.808 43.1232 205.554 43.5225 205.356 43.933C205.072 44.545 204.761 45.1794 204.425 45.8325C204.114 46.4408 203.826 47.0005 203.561 47.5193C203.539 47.564 203.512 47.6051 203.49 47.6499C203.266 47.6648 203.071 47.8066 202.907 48.0753C202.742 48.3477 202.66 48.6463 202.66 48.9709C202.66 48.9784 202.66 48.9858 202.66 48.9933C202.48 49.2433 202.297 49.4672 202.114 49.6538C201.848 49.9263 201.605 50.0606 201.377 50.0606C201.149 50.0606 201.033 49.8628 201.033 49.4635C201.033 49.3926 201.044 49.2769 201.067 49.1202C201.089 48.9635 201.104 48.844 201.119 48.7582C201.19 48.4597 201.314 48.1051 201.482 47.6909C201.654 47.2767 201.845 46.8737 202.058 46.4744C202.271 46.0751 202.477 45.7205 202.667 45.4071C202.862 45.0936 203.011 44.8809 203.127 44.7652C202.955 44.795 202.791 44.7876 202.634 44.7428C202.477 44.7018 202.32 44.6794 202.162 44.6794C201.818 44.6794 201.557 44.8062 201.37 45.0637C201.183 45.3212 200.985 45.6422 200.772 46.0265C200.457 46.5975 200.151 47.1311 199.852 47.6275C199.553 48.1275 199.216 48.6015 198.846 49.0567C198.304 49.6837 197.818 49.9972 197.391 49.9972C197.036 49.9972 196.857 49.7621 196.857 49.2919V49.1314C196.857 49.0978 196.864 49.0344 196.879 48.9485C196.92 48.6649 196.999 48.3701 197.115 48.0716C197.227 47.773 197.346 47.5006 197.466 47.2618C197.586 47.0192 197.675 46.855 197.735 46.7692C198.12 46.1422 198.573 45.5377 199.093 44.9555C199.612 44.3734 200.117 43.9517 200.6 43.6942C200.914 43.5374 201.19 43.4591 201.433 43.4591C201.946 43.4591 202.282 43.7091 202.439 44.2054C202.555 44.2353 202.645 44.2204 202.716 44.1644C202.787 44.1084 202.824 44.0375 202.824 43.9517C202.824 43.8248 202.776 43.7091 202.675 43.6083C202.447 43.3658 202.181 43.1904 201.882 43.0859C201.583 42.9777 201.269 42.9254 200.94 42.9254C200.368 42.9254 199.788 43.0784 199.197 43.3844C198.607 43.6904 198.102 44.0935 197.69 44.5898C197.047 45.3735 196.584 46.1273 196.299 46.855C196.228 47.0379 196.165 47.217 196.112 47.3886C195.989 47.6163 195.862 47.8439 195.724 48.0716C195.481 48.4709 195.215 48.8216 194.931 49.1277C194.647 49.4337 194.34 49.6277 194.011 49.7135C193.94 49.7285 193.873 49.7397 193.809 49.7471C193.746 49.7546 193.671 49.7583 193.585 49.7583C193.241 49.7583 192.863 49.7098 192.452 49.6091C192.037 49.5083 191.689 49.415 191.405 49.3329C191.734 49.0344 192.059 48.6537 192.388 48.191C192.717 47.7282 193.046 47.2468 193.383 46.7505C193.719 46.2542 194.06 45.7914 194.411 45.3735C194.759 44.9555 195.129 44.6383 195.514 44.4219C195.63 44.351 195.746 44.2875 195.866 44.2278C195.985 44.1718 196.049 44.0487 196.049 43.8658C196.049 43.739 196.012 43.6307 195.94 43.5449C195.869 43.4591 195.783 43.418 195.682 43.418C195.582 43.418 195.469 43.4889 195.338 43.6307C195.211 43.7725 195.009 43.8434 194.74 43.8434C194.527 43.8434 194.314 43.7912 194.097 43.683C193.884 43.5748 193.667 43.474 193.443 43.3732C193.222 43.2725 192.99 43.224 192.747 43.224C192.463 43.224 192.16 43.265 191.839 43.3508C191.517 43.4367 191.188 43.627 190.855 43.9255C190.519 44.2241 190.175 44.6943 189.816 45.3362C189.73 45.4929 189.603 45.7467 189.431 46.0937C189.262 46.4333 189.094 46.7692 188.93 47.0976C188.885 47.1834 188.832 47.2767 188.78 47.3774C188.559 47.7842 188.309 48.1984 188.032 48.6276C187.755 49.053 187.464 49.415 187.165 49.7061C186.865 49.9972 186.581 50.1427 186.308 50.1427C186.207 50.1427 186.114 50.1091 186.032 50.0345C185.946 49.9636 185.905 49.8143 185.905 49.5867C185.905 49.4299 185.927 49.2583 185.968 49.0754C186.024 48.7619 186.151 48.3738 186.342 47.9111C186.536 47.4483 186.753 46.9632 186.996 46.4594C187.239 45.9556 187.479 45.478 187.714 45.0302C187.95 44.5823 188.223 44.0785 188.537 43.5262C188.496 43.5113 188.421 43.5039 188.324 43.5039C188.051 43.5039 187.688 43.6121 187.232 43.8248C186.776 44.0375 186.308 44.3062 185.83 44.6271C185.351 44.9481 184.94 45.2578 184.6 45.5563C184.244 45.8549 183.919 46.1683 183.627 46.4967C183.336 46.8251 183.052 47.1535 182.782 47.4782C183.04 46.9669 183.332 46.4184 183.661 45.8325C183.99 45.2503 184.312 44.7316 184.626 44.2838C184.94 43.836 185.198 43.5561 185.396 43.4404C185.355 43.4553 185.288 43.4628 185.202 43.4628C185.074 43.4628 184.944 43.4441 184.816 43.4106C184.689 43.377 184.566 43.3583 184.454 43.3583C184.125 43.3583 183.867 43.4628 183.672 43.668C183.482 43.8733 183.242 44.2353 182.954 44.7465C182.678 45.2578 182.408 45.784 182.139 46.3213C182.106 46.3549 182.079 46.3997 182.057 46.4557C181.93 46.7132 181.758 47.0416 181.545 47.4483C181.331 47.8551 181.096 48.2581 180.838 48.6537C180.58 49.053 180.322 49.3889 180.056 49.6576C179.791 49.93 179.548 50.0643 179.32 50.0643C179.092 50.0643 178.976 49.8665 178.976 49.4672C178.976 49.3963 178.987 49.2807 179.009 49.1239C179.032 48.9672 179.047 48.8478 179.062 48.7619C179.133 48.4634 179.256 48.1089 179.425 47.6946C179.597 47.2804 179.787 46.8774 180 46.4781C180.213 46.0788 180.419 45.7243 180.61 45.4108C180.804 45.0973 180.954 44.8846 181.07 44.7689C180.898 44.7988 180.733 44.7913 180.576 44.7465C180.419 44.7055 180.262 44.6831 180.105 44.6831C179.761 44.6831 179.499 44.81 179.312 45.0675C179.125 45.325 178.927 45.6459 178.714 46.0303C178.4 46.6012 178.093 47.1349 177.794 47.6312C177.495 48.1313 177.159 48.6052 176.788 49.0605C176.246 49.6874 175.76 50.0009 175.334 50.0009C174.979 50.0009 174.799 49.7658 174.799 49.2956V49.1351C174.799 49.1015 174.807 49.0381 174.822 48.9523C174.863 48.6686 174.941 48.3738 175.057 48.0753C175.169 47.7767 175.289 47.5043 175.409 47.2655C175.528 47.0229 175.618 46.8587 175.678 46.7729C176.063 46.146 176.515 45.5414 177.035 44.9592C177.555 44.3771 178.06 43.9554 178.542 43.6979C178.856 43.5412 179.133 43.4628 179.376 43.4628C179.888 43.4628 180.225 43.7128 180.382 44.2092C180.494 44.239 180.587 44.2241 180.658 44.1681C180.729 44.1121 180.767 44.0412 180.767 43.9554C180.767 43.8285 180.718 43.7128 180.617 43.6121C180.389 43.3695 180.124 43.1941 179.825 43.0896C179.525 42.9814 179.211 42.9292 178.882 42.9292C178.31 42.9292 177.731 43.0822 177.14 43.3882C176.549 43.6942 176.044 44.0972 175.633 44.5935C174.99 45.3772 174.526 46.131 174.242 46.8587C174.171 47.0416 174.107 47.2207 174.055 47.3924C173.834 47.7954 173.588 48.2059 173.315 48.6313C173.038 49.0567 172.746 49.4187 172.447 49.7098C172.148 50.0009 171.864 50.1464 171.591 50.1464C171.49 50.1464 171.396 50.1128 171.314 50.0382C171.228 49.9673 171.187 49.818 171.187 49.5904C171.187 49.4337 171.21 49.262 171.251 49.0791C171.307 48.7657 171.434 48.3776 171.625 47.9148C171.819 47.4521 172.036 46.9669 172.279 46.4632C172.522 45.9594 172.761 45.4817 172.997 45.0339C173.232 44.5861 173.505 44.0823 173.819 43.53C173.778 43.515 173.704 43.5076 173.606 43.5076C173.333 43.5076 172.971 43.6158 172.515 43.8285C172.058 44.0412 171.591 44.3099 171.112 44.6308C170.634 44.9518 170.222 45.2615 169.882 45.5601C169.527 45.8586 169.202 46.1721 168.91 46.5005C168.618 46.8289 168.334 47.1573 168.065 47.4819C168.323 46.9707 168.615 46.4221 168.944 45.8362C169.273 45.2541 169.594 44.7353 169.908 44.2875C170.222 43.8397 170.48 43.5598 170.679 43.4441C170.637 43.4591 170.57 43.4665 170.484 43.4665C170.357 43.4665 170.226 43.4479 170.099 43.4143C169.972 43.3807 169.848 43.362 169.736 43.362C169.407 43.362 169.149 43.4665 168.955 43.6718C168.764 43.877 168.525 44.239 168.237 44.7503C167.971 45.2429 167.706 45.7541 167.448 46.2766C167.399 46.3102 167.354 46.3699 167.317 46.4594C167.018 47.0565 166.693 47.6573 166.345 48.2656C165.993 48.8702 165.642 49.359 165.287 49.7285C165.201 49.8143 165.066 49.9001 164.879 49.986C164.692 50.0718 164.528 50.1128 164.386 50.1128C164.157 50.1128 163.997 50.0494 163.903 49.9188C163.81 49.7919 163.765 49.6352 163.765 49.4486V49.2769C163.765 49.2769 163.772 49.2284 163.787 49.1687C163.802 49.1127 163.828 48.9747 163.873 48.7619C163.888 48.706 163.974 48.497 164.131 48.1425L165.907 43.9778C166.008 43.7501 166.057 43.5934 166.057 43.5076C166.057 43.4218 166.012 43.3471 165.919 43.2837C165.825 43.2202 165.672 43.1941 165.459 43.209L164.281 43.2501C164.311 43.2911 164.359 43.3658 164.43 43.474C164.501 43.5822 164.539 43.7054 164.539 43.8472C164.539 43.933 164.516 44.0338 164.475 44.1457L163.043 47.7991C162.972 47.9857 162.912 48.1872 162.86 48.4074C162.811 48.6276 162.785 48.844 162.785 49.0605C162.785 49.4598 162.894 49.8106 163.107 50.1166C163.32 50.4226 163.69 50.5756 164.221 50.5756C164.621 50.5756 164.991 50.4338 165.335 50.1502C165.5 50.0158 165.657 49.8591 165.81 49.6874C165.638 50.0382 165.47 50.3927 165.294 50.7472C165.38 50.6763 165.489 50.6353 165.616 50.6316C165.743 50.6241 165.881 50.6129 166.023 50.598C166.236 50.5831 166.405 50.5681 166.524 50.5569C166.644 50.542 166.756 50.445 166.857 50.2584C167.5 49.0344 168.065 48.1089 168.558 47.4819C169.052 46.855 169.475 46.3699 169.834 46.0303C170.204 45.6757 170.514 45.4257 170.765 45.2839C171.015 45.1421 171.202 45.0712 171.333 45.0712C171.49 45.0712 171.568 45.157 171.568 45.3287C171.568 45.3847 171.557 45.4556 171.535 45.5414C171.512 45.6272 171.453 45.7467 171.352 45.9034C170.996 46.4744 170.738 46.9222 170.581 47.2506C170.424 47.579 170.29 47.885 170.174 48.1686C170.103 48.3813 170.054 48.5791 170.024 48.7545C169.994 48.9336 169.983 49.1015 169.983 49.2545C169.983 49.7956 170.136 50.1651 170.443 50.3666C170.75 50.5644 171.045 50.6651 171.329 50.6651C171.744 50.6651 172.129 50.5196 172.485 50.2285C172.84 49.9375 173.169 49.5755 173.468 49.1388C173.603 48.9448 173.726 48.747 173.846 48.5492C173.838 48.6351 173.831 48.7246 173.831 48.8067C173.831 49.3478 173.943 49.7845 174.175 50.1203C174.403 50.4562 174.702 50.6204 175.072 50.6204C175.27 50.6204 175.491 50.5644 175.734 50.4487C175.977 50.3368 176.235 50.1502 176.504 49.8927C176.818 49.5941 177.11 49.2471 177.383 48.8552C177.652 48.4634 177.876 48.1313 178.045 47.8626C177.918 48.3477 177.85 48.7582 177.85 49.1015C177.85 49.5158 177.925 49.8367 178.075 50.0643C178.224 50.292 178.4 50.4487 178.598 50.5345C178.796 50.6204 178.976 50.654 179.133 50.6428C179.447 50.6129 179.757 50.4599 180.064 50.1838C180.217 50.0457 180.367 49.8889 180.516 49.7135C180.348 50.0569 180.184 50.4002 180.012 50.7472C180.098 50.6763 180.206 50.6353 180.333 50.6316C180.46 50.6241 180.599 50.6129 180.741 50.598C180.954 50.5831 181.122 50.5681 181.242 50.5569C181.361 50.542 181.474 50.445 181.575 50.2584C182.218 49.0344 182.782 48.1089 183.276 47.4819C183.769 46.855 184.192 46.3699 184.551 46.0303C184.921 45.6757 185.231 45.4257 185.482 45.2839C185.733 45.1421 185.919 45.0712 186.05 45.0712C186.207 45.0712 186.286 45.157 186.286 45.3287C186.286 45.3847 186.275 45.4556 186.252 45.5414C186.23 45.6272 186.17 45.7467 186.069 45.9034C185.714 46.4744 185.456 46.9222 185.299 47.2506C185.142 47.579 185.007 47.885 184.891 48.1686C184.82 48.3813 184.772 48.5791 184.742 48.7545C184.712 48.9336 184.701 49.1015 184.701 49.2545C184.701 49.7956 184.854 50.1651 185.16 50.3666C185.467 50.5644 185.762 50.6651 186.047 50.6651C186.462 50.6651 186.847 50.5196 187.202 50.2285C187.557 49.9375 187.886 49.5755 188.185 49.1388C188.485 48.706 188.754 48.2581 188.989 47.8029C189.225 47.3476 189.427 46.9558 189.599 46.6274C189.689 46.4632 189.775 46.3139 189.853 46.1795C190.122 45.7243 190.38 45.3772 190.623 45.1421C190.866 44.907 191.113 44.7503 191.36 44.6719C191.611 44.5935 191.906 44.5562 192.246 44.5562C192.53 44.5562 192.837 44.5935 193.166 44.6644C193.495 44.7353 193.787 44.7988 194.045 44.8585C193.761 45.157 193.461 45.5265 193.147 45.9706C192.833 46.4109 192.512 46.8625 192.183 47.3252C191.854 47.7879 191.536 48.2022 191.229 48.5642C190.923 48.9261 190.642 49.1724 190.384 49.2993C190.283 49.3553 190.096 49.4374 189.816 49.5456C189.539 49.6538 189.27 49.7583 189.012 49.8665C188.754 49.9748 188.604 50.0681 188.563 50.1539C188.492 50.2547 188.455 50.3741 188.455 50.5159C188.455 50.7286 188.582 50.8368 188.84 50.8368C189.124 50.8368 189.393 50.7622 189.644 50.6129C189.894 50.4636 190.152 50.389 190.425 50.389C190.754 50.389 191.154 50.4375 191.622 50.5383C192.093 50.639 192.635 50.7025 193.248 50.7323C193.79 50.7473 194.292 50.5345 194.755 50.0905C195.159 49.7061 195.537 49.2135 195.888 48.6201C195.888 48.6836 195.877 48.7507 195.877 48.8104C195.877 49.3516 195.989 49.7882 196.221 50.124C196.449 50.4599 196.748 50.6241 197.118 50.6241C197.317 50.6241 197.537 50.5681 197.78 50.4524C198.023 50.3405 198.277 50.1539 198.55 49.8964C198.865 49.5979 199.156 49.2508 199.429 48.859C199.698 48.4671 199.923 48.135 200.091 47.8663C199.964 48.3514 199.897 48.7619 199.897 49.1053C199.897 49.5195 199.971 49.8404 200.121 50.0681C200.27 50.2957 200.446 50.4524 200.644 50.5383C200.843 50.6241 201.022 50.6577 201.179 50.6465C201.493 50.6166 201.804 50.4636 202.11 50.1875C202.327 49.9897 202.536 49.7583 202.746 49.4896C202.817 49.7061 202.933 49.9188 203.097 50.124C203.389 50.486 203.886 50.6689 204.585 50.6689C204.713 50.6689 204.855 50.6502 205.004 50.6166C205.154 50.5831 205.3 50.5345 205.442 50.4786C205.569 50.5196 205.7 50.5495 205.827 50.5644C205.954 50.5793 206.077 50.5868 206.19 50.5868C206.676 50.5868 207.113 50.4562 207.506 50.1912C207.898 49.9263 208.242 49.5867 208.545 49.165C208.844 48.747 209.114 48.3029 209.349 47.8402C209.585 47.3774 209.794 46.9483 209.981 46.549C210.011 46.4781 210.007 46.4184 209.97 46.3661V46.3587ZM204.653 50.2882C204.582 50.3106 204.503 50.3218 204.417 50.3218C204.159 50.3218 203.961 50.236 203.819 50.0643C203.677 49.8927 203.606 49.6949 203.606 49.4672C203.606 49.1538 203.733 48.8627 203.991 48.5903C204.021 49.0045 204.114 49.3404 204.279 49.6053C204.443 49.8703 204.63 50.0793 204.847 50.236C204.791 50.2509 204.728 50.2696 204.657 50.2882H204.653ZM205.229 50.0196C204.959 49.9076 204.731 49.6949 204.556 49.3889C204.376 49.0829 204.294 48.7507 204.309 48.3962C204.324 48.1275 204.294 47.9447 204.223 47.8514C204.152 47.7581 204.036 47.7058 203.879 47.6909C204.051 47.3625 204.256 46.9632 204.499 46.4967C204.743 46.0265 204.986 45.5377 205.229 45.0339C205.472 44.5301 205.685 44.0823 205.872 43.6979C205.857 43.7688 205.846 43.8434 205.838 43.9218C205.831 44.0002 205.827 44.0897 205.827 44.1905C205.827 44.6756 205.883 45.2317 205.999 45.8549C206.111 46.4818 206.171 47.0714 206.171 47.6275C206.171 48.2544 206.074 48.7582 205.883 49.1426C205.692 49.527 205.472 49.818 205.229 50.0196Z" fill="#FB5D6B"/>
<path d="M195.488 40.037C198.652 40.037 202.14 39.1824 204.866 37.4322L199.975 33.2004C198.562 33.7266 196.965 34.0214 195.6 34.0214C190.93 34.0214 188.051 31.6368 187.613 28.3304H208.527C209.559 17.3254 203.965 11.7949 195.002 11.7949C186.039 11.7949 180.771 17.65 180.771 25.7816C180.771 34.3461 186.256 40.0408 195.492 40.0408L195.488 40.037ZM195.215 17.6463C199.018 17.6463 201.733 19.3816 202.166 22.8521H187.718C188.694 19.3816 191.629 17.6463 195.215 17.6463Z" fill="#FB5D6B"/>
<path d="M206.751 30.3866H201.015C200.514 30.3829 200.282 31.0024 200.659 31.3308L207.21 36.9993C207.588 37.3277 208.171 37.0105 208.1 36.5142L207.285 30.8494C207.248 30.5844 207.02 30.3866 206.751 30.3866Z" fill="#FB5D6B"/>
</g>
<defs>
<clipPath id="clip0_16_1290">
<rect width="210" height="52.7488" fill="white" transform="translate(0 0.62561)"/>
</clipPath>
</defs>
</svg>
