<svg width="89" height="72" viewBox="0 0 89 72" fill="none" xmlns="http://www.w3.org/2000/svg">
<path d="M40.4312 9.07087L25.6699 36.6614L15.4505 39.4961C16.586 37.3543 17.9108 35.5906 19.4247 34.2047C20.9387 32.6929 22.6419 31.937 24.5344 31.937C28.9502 31.937 32.9244 33.7008 36.457 37.2284C39.9896 40.7559 41.7559 45.2913 41.7559 50.8346C41.7559 56.6299 39.8004 61.6063 35.8892 65.7638C31.9781 69.9213 27.0577 72 21.128 72C15.5767 72 10.7194 69.9843 6.55591 65.9528C2.51864 61.7953 0.5 56.7559 0.5 50.8346C0.5 48.4409 0.941579 45.6693 1.82473 42.5197C2.70789 39.3701 4.53728 35.2756 7.31291 30.2362L23.7774 0L40.4312 9.07087ZM87.1753 9.07087L72.414 36.6614L62.1946 39.4961C63.3301 37.3543 64.6548 35.5906 66.1688 34.2047C67.6828 32.6929 69.386 31.937 71.2785 31.937C75.6943 31.937 79.6685 33.7008 83.2011 37.2284C86.7337 40.7559 88.5 45.2913 88.5 50.8346C88.5 56.6299 86.5444 61.6063 82.6333 65.7638C78.7222 69.9213 73.8018 72 67.872 72C62.3208 72 57.4634 69.9843 53.3 65.9528C49.2627 61.7953 47.2441 56.7559 47.2441 50.8346C47.2441 48.4409 47.6857 45.6693 48.5688 42.5197C49.452 39.3701 51.2814 35.2756 54.057 30.2362L70.5215 0L87.1753 9.07087Z" fill="#FB5D6B"/>
</svg>
