<svg width="92" height="74" viewBox="0 0 92 74" fill="none" xmlns="http://www.w3.org/2000/svg">
<path d="M50.2075 64.6772L65.4721 36.3202L76.0398 33.4068C74.8656 35.6081 73.4957 37.4856 71.9301 39.0394C70.3645 40.4637 68.6032 41.1759 66.6462 41.1759C62.2104 41.1759 58.1007 39.3631 54.3172 35.7375C50.6642 31.9825 48.8376 27.3211 48.8376 21.7533C48.8376 15.797 50.8599 10.6824 54.9043 6.40946C58.9488 2.13649 64.0369 0 70.1688 0C75.9093 0 80.867 2.13649 85.0419 6.40946C89.3473 10.5529 91.5 15.6676 91.5 21.7533C91.5 24.2135 91.0434 27.0621 90.1301 30.2992C89.2169 33.5363 87.3251 37.7445 84.4548 42.9239L67.429 74L50.2075 64.6772ZM1.86989 64.6772L17.1344 36.3202L27.7022 33.4068C26.528 35.6081 25.1581 37.4856 23.5925 39.0394C22.0269 40.4637 20.2656 41.1759 18.3086 41.1759C13.8728 41.1759 9.76308 39.3631 5.97957 35.7375C2.32652 31.9825 0.5 27.3211 0.5 21.7533C0.5 15.797 2.52222 10.6824 6.56666 6.40946C10.6111 2.13649 15.6993 0 21.8312 0C27.5717 0 32.5294 2.13649 36.7043 6.40946C41.0097 10.5529 43.1624 15.6676 43.1624 21.7533C43.1624 24.2135 42.7057 27.0621 41.7925 30.2992C40.8792 33.5363 38.9874 37.7445 36.1172 42.9239L19.0914 74L1.86989 64.6772Z" fill="#FB5D6B"/>
</svg>
