<svg width="110" height="110" viewBox="0 0 110 110" fill="none" xmlns="http://www.w3.org/2000/svg">
<rect width="110" height="110" rx="19" fill="#010B40"/>
<path d="M56.8637 78.9248C39.5065 78.9248 32.7791 66.8063 32.6824 55.1911C32.5788 43.4724 39.9071 30.8577 56.8637 30.8577C62.9833 30.8577 69.2065 32.9601 73.8203 37.4684L82.6475 28.9551C75.4228 21.8412 66.3953 18.236 56.8637 18.236C31.4737 18.236 19.5384 36.8618 19.6351 55.1911C19.7387 73.417 30.7761 91.3396 56.8637 91.3396C66.9962 91.3396 76.3276 88.0377 83.5523 80.9238L74.5249 71.8109C69.911 76.4156 62.9833 78.9179 56.8637 78.9179V78.9248Z" fill="#FB5D6B"/>
<path d="M88.4955 66.263H77.9002C76.9747 66.2561 76.5464 67.4004 77.244 68.007L89.345 78.4779C90.0426 79.0845 91.1201 78.4986 90.9889 77.5818L89.4832 67.1177C89.4141 66.6283 88.9928 66.263 88.4955 66.263Z" fill="#FB5D6B"/>
</svg>
