<svg width="13805" height="3469" viewBox="0 0 13805 3469" fill="none" xmlns="http://www.w3.org/2000/svg">
<g clip-path="url(#clip0_147_14)">
<path d="M1324.9 2160.67C707.186 2160.67 467.771 1729.22 464.329 1315.69C460.642 898.48 721.443 449.363 1324.9 449.363C1542.68 449.363 1764.16 524.215 1928.35 684.719L2242.5 381.627C1985.38 128.354 1664.11 0 1324.9 0C421.313 0 -3.44106 663.123 0.000231493 1315.69C3.68733 1964.58 396.487 2602.67 1324.9 2602.67C1685.5 2602.67 2017.58 2485.11 2274.7 2231.84L1953.43 1907.4C1789.23 2071.34 1542.68 2160.42 1324.9 2160.42V2160.67Z" fill="#FB5D6B"/>
<path d="M3813.69 1030.27C3713.65 855.531 3488.74 745.093 3253.01 745.093C2738.78 741.411 2335.17 1058.74 2335.17 1664.92C2335.17 2271.11 2720.84 2602.67 3242.19 2598.99C3438.59 2595.31 3713.65 2495.67 3813.45 2288.78L3834.83 2545.49H4245.58V788.041H3827.7L3813.45 1030.52L3813.69 1030.27ZM3292.34 2199.69C3003.02 2199.69 2770.98 1999.92 2770.98 1664.92C2770.98 1329.93 3003.02 1133.59 3292.34 1133.59C3977.89 1133.59 3977.89 2199.69 3292.34 2199.69Z" fill="#FB5D6B"/>
<path d="M5049.12 991.248L5016.92 788.041H4613.3V2545.49H5048.87V1618.54C5048.87 1294.1 5259.53 1172.86 5488.13 1172.86C5630.94 1172.86 5713.04 1212.13 5802.27 1286.98L5998.67 909.033C5902.31 812.828 5727.3 741.411 5545.16 741.411C5363.01 741.411 5184.56 773.561 5048.87 991.003L5049.12 991.248Z" fill="#FB5D6B"/>
<path d="M6991.48 752.21C6430.8 752.21 6081.01 1165.74 6081.01 1668.6C6081.01 2171.47 6423.91 2585 6995.17 2585C7566.42 2585 7913.01 2174.9 7913.01 1668.6C7913.01 1162.31 7552.41 752.21 6991.73 752.21H6991.48ZM6995.17 2185.46C6677.34 2185.46 6516.58 1935.87 6516.58 1668.6C6516.58 1401.34 6680.78 1148.07 6995.17 1148.07C7287.92 1148.07 7473.75 1404.78 7473.75 1668.6C7473.75 1932.43 7313 2185.46 6995.17 2185.46Z" fill="#FB5D6B"/>
<path d="M8644.78 53.5015H8212.65V2545.73H8644.78V53.5015Z" fill="#FB5D6B"/>
<path d="M10132.6 2142.51C10182.5 2155.76 10230.5 2171.47 10276.4 2188.65V1647.01C10276.4 1379.5 10458.6 1154.94 10726.3 1154.94C10994 1154.94 11151.3 1358.15 11151.3 1625.66V2545.49H11586.8V1621.98C11586.8 1069.29 11254.8 759.081 10840.6 759.081C10619.1 759.081 10440.6 848.169 10262.2 1022.91L10233.7 784.114H9844.32V2123.61C9877.01 2117.97 9910.93 2115.02 9946.57 2115.02C10002.9 2115.02 10065.3 2124.1 10132.6 2142.26V2142.51Z" fill="#FB5D6B"/>
<path d="M9443.16 2542.05C9443.16 2505.98 9449.8 2469.16 9462.33 2432.35V780.678H9026.76V2545.49H9443.41C9443.41 2545.49 9443.41 2543.28 9443.41 2542.05H9443.16Z" fill="#FB5D6B"/>
<path d="M9501.66 292.294C9501.66 -46.3842 8987.43 -46.3842 8987.43 292.294C8987.43 630.973 9501.66 630.973 9501.66 292.294Z" fill="#FB5D6B"/>
<path d="M10417.8 2561.69C10441.1 2516.77 10467.9 2477.51 10497.9 2443.64C10507.3 2447.32 10527.7 2457.14 10559.1 2473.09C10590.6 2489.04 10629.7 2505.98 10676.6 2523.65C10723.6 2541.56 10774.2 2555.06 10828.5 2564.38C10835.2 2565.37 10841.3 2566.1 10847.5 2566.59C10853.6 2567.08 10859.5 2567.33 10865.2 2567.33C10903.5 2567.33 10936.4 2558.74 10963.7 2541.32C10991 2523.89 11006.5 2502.78 11010.2 2477.51C11011.2 2474.81 11011.7 2471.86 11011.7 2469.16V2460.82C11011.7 2450.51 11009.2 2445.36 11004.5 2445.36C10997.9 2445.36 10991 2454.19 10983.4 2472.11C10975 2490.02 10960.8 2502.05 10941.1 2508.67C10921.4 2515.3 10899.3 2518.49 10875 2518.49C10846 2518.49 10814.3 2515.06 10780.1 2507.94C10745.9 2500.82 10711.8 2491.74 10678.1 2480.45C10644.4 2469.16 10613.7 2457.87 10585.9 2446.83C10558.1 2435.54 10536 2425.72 10519.1 2417.38C10527.4 2410.02 10537.2 2402.9 10548.6 2396.27C10559.9 2389.65 10571.4 2386.46 10583.7 2386.46C10591.1 2386.46 10598.2 2387.93 10604.8 2390.63C10612.2 2398.97 10617.9 2403.39 10621.8 2403.39C10627.5 2403.39 10630.2 2399.22 10630.2 2390.63C10630.2 2384 10627.9 2377.62 10623.8 2370.99C10619.6 2364.37 10613.2 2359.71 10604.8 2357.01C10593.5 2354.31 10583.7 2352.83 10575.3 2352.83C10552 2352.83 10532.6 2358.97 10517.6 2370.99C10502.6 2383.27 10491.8 2393.08 10485.1 2400.44C10441.9 2373.2 10387.5 2344.49 10321.9 2314.06C10256.3 2283.63 10184.5 2258.1 10106.6 2237.49C10047.6 2221.53 9994.01 2213.68 9946.33 2213.68C9883.4 2213.68 9827.11 2223.74 9777.46 2243.87C9727.8 2263.99 9685.28 2290.25 9650.13 2322.4C9614.98 2354.8 9587.94 2390.38 9569.26 2429.16C9550.58 2467.94 9541.24 2505.73 9541.24 2542.3C9541.24 2574.2 9548.61 2603.9 9563.85 2631.38C9578.84 2659.12 9601.95 2681.7 9632.68 2699.61C9649.64 2708.94 9667.58 2716.05 9686.75 2720.72C9705.93 2725.38 9725.35 2727.83 9745.01 2727.83C9791.96 2727.83 9836.7 2715.07 9879.47 2689.3C9922.24 2663.53 9950.5 2626.23 9964.52 2577.64C9967.22 2569.29 9968.69 2562.67 9968.69 2558C9968.69 2551.38 9966.73 2548.19 9963.04 2548.19C9959.35 2548.19 9954.68 2551.62 9949.03 2558.74C9943.38 2565.86 9940.67 2573.96 9940.67 2583.28C9940.67 2592.61 9932.07 2606.35 9914.62 2624.76C9897.16 2642.92 9874.06 2659.61 9845.05 2674.58C9816.05 2689.55 9783.6 2697.16 9747.96 2697.16C9731.98 2697.16 9715.27 2694.95 9698.06 2690.04C9680.61 2685.38 9663.65 2677.77 9646.69 2667.46C9618.67 2650.53 9604.41 2622.55 9604.41 2583.28C9604.41 2553.34 9613.26 2521.19 9631.2 2487.08C9648.9 2452.96 9674.71 2420.57 9708.63 2390.14C9742.31 2359.71 9783.6 2334.67 9832.52 2315.04C9881.19 2295.41 9936.49 2285.59 9998.44 2285.59C10011.5 2285.59 10025.2 2286.08 10039.2 2287.06C10053.3 2288.04 10067.3 2289.52 10081.5 2291.23C10150.8 2300.56 10217.5 2317.98 10281.4 2343.26C10345 2368.54 10407 2396.27 10466.9 2426.21C10460.3 2433.82 10449 2449.28 10433.3 2473.33C10417.3 2497.14 10399.6 2526.59 10379.9 2561.19C10360.3 2595.8 10340.1 2633.35 10319.5 2673.6C10298.8 2713.85 10280.1 2754.09 10263.2 2794.34C10242.5 2790.66 10221.6 2787.47 10200.5 2785.26C10179.4 2783.05 10158.5 2781.83 10137.8 2781.83C10089.1 2781.83 10044.9 2790.66 10005.6 2808.58C9966.24 2826.49 9935.26 2860.11 9912.65 2909.69C9909.95 2915.33 9909.45 2920.49 9911.18 2925.15C9913.14 2929.81 9915.85 2932.27 9919.53 2932.27C9924.2 2932.27 9929.36 2929.08 9935.02 2922.45C9951 2899.87 9971.89 2883.43 9997.7 2872.63C10023.5 2861.83 10051 2854.96 10080.8 2851.53C10110.3 2848.33 10137.8 2846.62 10163.1 2846.62C10180.1 2846.62 10195.6 2846.62 10209.6 2847.35C10223.6 2847.84 10234.4 2848.09 10242 2848.09C10209.1 2922.94 10171.2 2993.87 10128 3060.87C10084.7 3127.87 10036.3 3187.01 9982.46 3238.55C9928.63 3290.09 9869.14 3330.58 9804.5 3360.03C9739.85 3389.48 9669.55 3404.21 9593.59 3404.21C9545.66 3404.21 9495.76 3396.36 9443.9 3380.4C9391.79 3364.45 9343.85 3341.14 9299.61 3310.21C9255.61 3279.29 9219.72 3240.76 9191.94 3194.38C9164.17 3147.99 9150.4 3094.49 9150.4 3033.63C9150.4 3023.32 9150.9 3012.52 9151.88 3001.23C9152.86 2989.94 9154.09 2978.65 9156.06 2967.61C9164.41 2919.75 9180.39 2883.92 9203.99 2859.38C9227.34 2835.08 9247.99 2816.68 9265.93 2804.65C9281.91 2794.34 9295.18 2784.77 9306 2775.94C9316.81 2767.1 9318.78 2762.68 9312.39 2762.68C9309.69 2762.68 9303.05 2764.16 9292.73 2766.86C9278.71 2770.54 9261.75 2779.13 9242.09 2792.13C9222.42 2805.14 9203.74 2822.08 9185.8 2842.69C9167.86 2863.31 9154.34 2887.11 9145 2914.35C9128.04 2965.89 9119.68 3015.96 9119.68 3064.55C9119.68 3142.35 9139.59 3211.8 9179.41 3273.16C9219.23 3334.51 9274.29 3382.61 9344.59 3417.71C9414.89 3452.8 9495.52 3470.47 9586.46 3470.47C9677.41 3470.47 9757.05 3457.71 9825.63 3432.43C9893.97 3407.15 9953.45 3372.8 10003.6 3329.11C10053.7 3285.67 10097 3236.83 10132.9 3183.09C10169 3129.34 10199.8 3073.88 10225.1 3016.69C10250.4 2959.51 10273 2904.29 10292.7 2851.03C10306.7 2853 10323.6 2854.22 10343.3 2855.21C10363 2856.19 10383.6 2856.68 10405.2 2856.68C10440.9 2856.68 10475.3 2855.7 10508.7 2853.98C10541.9 2852.02 10565.8 2849.32 10579.8 2845.64C10601.4 2839.99 10612.2 2833.86 10612.2 2827.47C10612.2 2821.09 10602.9 2817.66 10584.2 2817.66H10575.8C10566.5 2817.66 10555.4 2817.66 10542.9 2818.39C10530.1 2818.88 10516.4 2819.13 10501.4 2819.13C10471.4 2819.13 10439.2 2818.39 10405 2816.92C10370.8 2815.45 10339.1 2812.99 10310.1 2809.31C10324.1 2778.39 10339.9 2741.09 10357.3 2696.91C10374.8 2652.98 10395.2 2608.31 10418.5 2563.4L10417.8 2561.69Z" fill="#FB5D6B"/>
<path d="M10882.1 2617.89C10868.1 2630.89 10861 2646.35 10861 2664.27C10861 2678.26 10865.4 2690.28 10874.2 2700.1C10883.1 2709.92 10894.6 2714.83 10908.7 2714.83C10927.3 2714.83 10943.8 2707.71 10957.8 2693.72C10971.8 2679.73 10979 2663.78 10979 2645.86C10979 2632.86 10974.3 2621.57 10964.9 2612.24C10955.6 2602.92 10943.3 2598.25 10928.3 2598.25C10911.4 2598.25 10895.9 2604.88 10881.9 2617.89H10882.1Z" fill="#FB5D6B"/>
<path d="M13803 3007.61C13800.6 3004.42 13797.1 3002.7 13792.5 3002.7C13788.8 3002.7 13785.3 3005.16 13782.6 3009.82C13764.7 3047.37 13746.3 3082.96 13727.1 3116.58C13707.9 3150.2 13690.7 3176.46 13675.7 3195.11C13660.7 3213.76 13643.5 3229.47 13624.3 3242.23C13605.2 3254.99 13584.8 3261.13 13563.1 3261.13H13558.9C13557 3261.13 13553.8 3260.64 13549.1 3259.66L13539.3 3258.18C13568.3 3239.53 13592.1 3214.5 13611.1 3183.09C13629.7 3151.67 13639.1 3121.98 13639.1 3094C13639.1 3066.02 13633.2 3037.8 13621.4 3012.52C13609.6 2987.24 13598.5 2961.47 13588.2 2935.21C13583.5 2922.94 13579.6 2909.2 13576.2 2893.74C13573 2878.28 13571.2 2863.06 13571.2 2848.09C13571.2 2829.44 13574.7 2811.52 13581.8 2794.83C13588.9 2777.9 13601.2 2764.89 13619.2 2755.57C13623.8 2752.87 13629 2751.39 13634.7 2751.39C13643 2751.39 13652.8 2753.85 13664.2 2758.51C13668.8 2761.21 13672.5 2762.68 13675.5 2762.68C13682.1 2762.68 13685.3 2759.98 13685.3 2754.34C13685.3 2745.01 13680.1 2737.9 13669.8 2733.23C13663.2 2730.53 13656.8 2728.57 13650.9 2727.59C13644.7 2726.61 13638.1 2726.12 13630.5 2726.12H13616.5C13592.1 2729.8 13569.8 2744.28 13549.6 2769.56C13529.5 2794.83 13512.7 2821.09 13499.7 2848.09C13481 2888.34 13460.6 2930.06 13438.5 2973.01C13418.1 3013.01 13399.2 3049.82 13381.7 3083.94C13380.2 3086.88 13378.5 3089.58 13377.1 3092.53C13362.3 3093.51 13349.5 3102.83 13338.7 3120.5C13327.9 3138.42 13322.5 3158.05 13322.5 3179.41C13322.5 3179.9 13322.5 3180.39 13322.5 3180.88C13310.7 3197.32 13298.6 3212.05 13286.6 3224.32C13269.1 3242.23 13253.2 3251.07 13238.2 3251.07C13223.2 3251.07 13215.6 3238.06 13215.6 3211.8C13215.6 3207.14 13216.3 3199.53 13217.8 3189.22C13219.2 3178.91 13220.2 3171.06 13221.2 3165.42C13225.9 3145.78 13234 3122.47 13245.1 3095.23C13256.4 3067.98 13268.9 3041.48 13282.9 3015.22C13296.9 2988.96 13310.4 2965.65 13323 2945.03C13335.8 2924.41 13345.6 2910.43 13353.2 2902.82C13341.9 2904.78 13331.1 2904.29 13320.8 2901.35C13310.4 2898.65 13300.1 2897.17 13289.8 2897.17C13267.2 2897.17 13250 2905.52 13237.7 2922.45C13225.4 2939.39 13212.4 2960.49 13198.3 2985.77C13177.7 3023.32 13157.5 3058.41 13137.9 3091.05C13118.2 3123.94 13096.1 3155.11 13071.8 3185.05C13036.1 3226.28 13004.2 3246.9 12976.1 3246.9C12952.8 3246.9 12941 3231.43 12941 3200.51V3189.96C12941 3187.75 12941.5 3183.58 12942.5 3177.93C12945.2 3159.28 12950.3 3139.89 12957.9 3120.26C12965.3 3100.63 12973.2 3082.71 12981.1 3067C12988.9 3051.05 12994.8 3040.25 12998.8 3034.61C13024.1 2993.38 13053.8 2953.62 13088 2915.33C13122.1 2877.05 13155.3 2849.32 13187 2832.38C13207.7 2822.07 13225.9 2816.92 13241.9 2816.92C13275.5 2816.92 13297.7 2833.36 13308 2866C13315.6 2867.97 13321.5 2866.99 13326.2 2863.31C13330.8 2859.62 13333.3 2854.96 13333.3 2849.32C13333.3 2840.97 13330.1 2833.36 13323.5 2826.74C13308.5 2810.79 13291 2799.25 13271.4 2792.38C13251.7 2785.26 13231 2781.83 13209.4 2781.83C13171.8 2781.83 13133.7 2791.89 13094.9 2812.01C13056 2832.14 13022.8 2858.64 12995.8 2891.28C12953.5 2942.82 12923 2992.4 12904.4 3040.25C12899.7 3052.28 12895.5 3064.06 12892.1 3075.35C12884 3090.32 12875.6 3105.29 12866.5 3120.26C12850.5 3146.52 12833.1 3169.59 12814.4 3189.71C12795.7 3209.84 12775.6 3222.6 12753.9 3228.24C12749.3 3229.23 12744.8 3229.96 12740.7 3230.45C12736.5 3230.94 12731.6 3231.19 12725.9 3231.19C12703.3 3231.19 12678.5 3228 12651.4 3221.37C12624.1 3214.75 12601.3 3208.61 12582.6 3203.21C12604.2 3183.58 12625.6 3158.54 12647.3 3128.11C12668.9 3097.68 12690.5 3066.02 12712.6 3033.38C12734.8 3000.74 12757.1 2970.31 12780.2 2942.82C12803.1 2915.33 12827.4 2894.47 12852.7 2880.24C12860.4 2875.58 12868 2871.4 12875.9 2867.48C12883.7 2863.8 12887.9 2855.7 12887.9 2843.67C12887.9 2835.33 12885.4 2828.21 12880.8 2822.57C12876.1 2816.92 12870.4 2814.22 12863.8 2814.22C12857.2 2814.22 12849.8 2818.88 12841.2 2828.21C12832.8 2837.54 12819.6 2842.2 12801.9 2842.2C12787.9 2842.2 12773.8 2838.76 12759.6 2831.65C12745.6 2824.53 12731.3 2817.9 12716.6 2811.28C12702.1 2804.65 12686.8 2801.46 12670.8 2801.46C12652.2 2801.46 12632.3 2804.16 12611.1 2809.8C12590 2815.45 12568.3 2827.96 12546.5 2847.6C12524.3 2867.23 12501.7 2898.15 12478.1 2940.37C12472.5 2950.67 12464.1 2967.36 12452.8 2990.19C12441.8 3012.52 12430.7 3034.61 12419.9 3056.2C12416.9 3061.85 12413.5 3067.98 12410 3074.61C12395.5 3101.36 12379.1 3128.6 12360.9 3156.83C12342.7 3184.8 12323.5 3208.61 12303.9 3227.75C12284.2 3246.9 12265.5 3256.47 12247.6 3256.47C12240.9 3256.47 12234.8 3254.26 12229.4 3249.35C12223.7 3244.69 12221 3234.87 12221 3219.9C12221 3209.59 12222.5 3198.3 12225.2 3186.28C12228.9 3165.66 12237.2 3140.14 12249.8 3109.71C12262.6 3079.27 12276.8 3047.37 12292.8 3014.24C12308.8 2981.11 12324.5 2949.69 12340 2920.24C12355.5 2890.79 12373.4 2857.66 12394.1 2821.34C12391.4 2820.36 12386.4 2819.87 12380.1 2819.87C12362.1 2819.87 12338.3 2826.98 12308.3 2840.97C12278.3 2854.96 12247.6 2872.63 12216.1 2893.74C12184.6 2914.84 12157.6 2935.21 12135.2 2954.85C12111.9 2974.48 12090.5 2995.1 12071.3 3016.69C12052.2 3038.29 12033.5 3059.89 12015.8 3081.24C12032.7 3047.62 12051.9 3011.54 12073.5 2973.01C12095.2 2934.72 12116.3 2900.61 12137 2871.16C12157.6 2841.71 12174.6 2823.3 12187.6 2815.69C12184.9 2816.68 12180.5 2817.17 12174.8 2817.17C12166.5 2817.17 12157.8 2815.94 12149.5 2813.73C12141.1 2811.52 12133 2810.29 12125.6 2810.29C12104 2810.29 12087.1 2817.17 12074.3 2830.66C12061.7 2844.16 12046 2867.97 12027.1 2901.59C12008.9 2935.21 11991.2 2969.82 11973.5 3005.16C11971.3 3007.37 11969.6 3010.31 11968.1 3013.99C11959.7 3030.93 11948.4 3052.52 11934.4 3079.27C11920.4 3106.02 11904.9 3132.53 11888 3158.54C11871 3184.8 11854 3206.89 11836.6 3224.56C11819.1 3242.48 11803.2 3251.31 11788.2 3251.31C11773.2 3251.31 11765.5 3238.31 11765.5 3212.05C11765.5 3207.38 11766.3 3199.78 11767.8 3189.47C11769.2 3179.16 11770.2 3171.31 11771.2 3165.66C11775.9 3146.03 11784 3122.71 11795 3095.47C11806.3 3068.23 11818.9 3041.73 11832.9 3015.47C11846.9 2989.21 11860.4 2965.89 11873 2945.28C11885.7 2924.66 11895.6 2910.67 11903.2 2903.06C11891.9 2905.03 11881.1 2904.54 11870.7 2901.59C11860.4 2898.89 11850.1 2897.42 11839.8 2897.42C11817.2 2897.42 11800 2905.76 11787.7 2922.7C11775.4 2939.63 11762.3 2960.74 11748.3 2986.01C11727.7 3023.56 11707.5 3058.66 11687.9 3091.3C11668.2 3124.19 11646.1 3155.35 11621.7 3185.3C11586.1 3226.53 11554.1 3247.14 11526.1 3247.14C11502.8 3247.14 11491 3231.68 11491 3200.76V3190.2C11491 3187.99 11491.5 3183.82 11492.5 3178.18C11495.2 3159.53 11500.3 3140.14 11507.9 3120.5C11515.3 3100.87 11523.2 3082.96 11531 3067.25C11538.9 3051.3 11544.8 3040.5 11548.7 3034.85C11574.1 2993.62 11603.8 2953.86 11638 2915.58C11672.1 2877.29 11705.3 2849.56 11737 2832.63C11757.7 2822.32 11775.9 2817.17 11791.8 2817.17C11825.5 2817.17 11847.6 2833.61 11858 2866.25C11865.3 2868.21 11871.5 2867.23 11876.2 2863.55C11880.8 2859.87 11883.3 2855.21 11883.3 2849.56C11883.3 2841.22 11880.1 2833.61 11873.5 2826.98C11858.5 2811.03 11841 2799.5 11821.3 2792.62C11801.7 2785.51 11781 2782.07 11759.4 2782.07C11721.8 2782.07 11683.7 2792.13 11644.9 2812.26C11606 2832.38 11572.8 2858.89 11545.8 2891.53C11503.5 2943.07 11473 2992.64 11454.3 3040.5C11449.7 3052.52 11445.5 3064.3 11442.1 3075.59C11427.6 3102.1 11411.3 3129.09 11393.4 3157.07C11375.2 3185.05 11356 3208.86 11336.4 3228C11316.7 3247.14 11298 3256.71 11280.1 3256.71C11273.4 3256.71 11267.3 3254.5 11261.9 3249.6C11256.2 3244.93 11253.5 3235.12 11253.5 3220.14C11253.5 3209.84 11255 3198.55 11257.7 3186.52C11261.4 3165.91 11269.7 3140.38 11282.3 3109.95C11295.1 3079.52 11309.3 3047.62 11325.3 3014.48C11341.3 2981.35 11357 2949.94 11372.5 2920.49C11388 2891.04 11405.9 2857.91 11426.6 2821.58C11423.9 2820.6 11419 2820.11 11412.6 2820.11C11394.6 2820.11 11370.8 2827.23 11340.8 2841.22C11310.8 2855.21 11280.1 2872.88 11248.6 2893.98C11217.1 2915.09 11190.1 2935.46 11167.7 2955.09C11144.4 2974.73 11123 2995.34 11103.8 3016.94C11084.7 3038.53 11066 3060.13 11048.3 3081.48C11065.2 3047.86 11084.4 3011.78 11106 2973.25C11127.7 2934.97 11148.8 2900.85 11169.5 2871.4C11190.1 2841.95 11207.1 2823.55 11220.1 2815.94C11217.4 2816.92 11213 2817.41 11207.3 2817.41C11199 2817.41 11190.4 2816.18 11182 2813.98C11173.6 2811.77 11165.5 2810.54 11158.2 2810.54C11136.5 2810.54 11119.6 2817.41 11106.8 2830.91C11094.2 2844.41 11078.5 2868.21 11059.6 2901.84C11042.1 2934.23 11024.7 2967.85 11007.7 3002.21C11004.5 3004.42 11001.6 3008.35 10999.1 3014.24C10979.5 3053.51 10958.1 3093.02 10935.2 3133.02C10912.1 3172.78 10889 3204.93 10865.6 3229.23C10860 3234.87 10851.1 3240.51 10838.9 3246.16C10826.6 3251.8 10815.7 3254.5 10806.4 3254.5C10791.4 3254.5 10780.8 3250.33 10774.7 3241.74C10768.5 3233.4 10765.6 3223.09 10765.6 3210.82V3199.53C10765.6 3199.53 10766.1 3196.34 10767.1 3192.41C10768.1 3188.73 10769.8 3179.65 10772.7 3165.66C10773.7 3161.98 10779.4 3148.24 10789.7 3124.92L10906.4 2851.03C10913.1 2836.06 10916.3 2825.76 10916.3 2820.11C10916.3 2814.47 10913.3 2809.56 10907.2 2805.39C10901 2801.21 10891 2799.5 10876.9 2800.48L10799.5 2803.18C10801.5 2805.88 10804.7 2810.79 10809.4 2817.9C10814 2825.02 10816.5 2833.12 10816.5 2842.44C10816.5 2848.09 10815 2854.72 10812.3 2862.08L10718.2 3102.34C10713.5 3114.61 10709.6 3127.87 10706.1 3142.35C10702.9 3156.83 10701.2 3171.06 10701.2 3185.3C10701.2 3211.55 10708.3 3234.62 10722.3 3254.75C10736.3 3274.87 10760.7 3284.94 10795.6 3284.94C10821.9 3284.94 10846.2 3275.61 10868.8 3256.96C10879.7 3248.12 10890 3237.81 10900.1 3226.53C10888.7 3249.6 10877.7 3272.91 10866.1 3296.22C10871.8 3291.56 10878.9 3288.86 10887.3 3288.62C10895.6 3288.13 10904.7 3287.39 10914.1 3286.41C10928.1 3285.43 10939.1 3284.44 10947 3283.71C10954.9 3282.73 10962.2 3276.35 10968.9 3264.07C11011.2 3183.58 11048.3 3122.71 11080.7 3081.48C11113.2 3040.25 11140.9 3008.35 11164.5 2986.01C11188.9 2962.7 11209.3 2946.26 11225.7 2936.93C11242.2 2927.61 11254.5 2922.94 11263.1 2922.94C11273.4 2922.94 11278.6 2928.59 11278.6 2939.88C11278.6 2943.56 11277.9 2948.22 11276.4 2953.86C11274.9 2959.51 11271 2967.36 11264.3 2977.67C11241 3015.22 11224 3044.67 11213.7 3066.27C11203.4 3087.86 11194.5 3107.99 11186.9 3126.64C11182.2 3140.63 11179 3153.64 11177.1 3165.17C11175.1 3176.95 11174.4 3187.99 11174.4 3198.06C11174.4 3233.64 11184.5 3257.94 11204.6 3271.19C11224.8 3284.2 11244.2 3290.83 11262.9 3290.83C11290.2 3290.83 11315.5 3281.25 11338.8 3262.11C11362.2 3242.97 11383.8 3219.16 11403.5 3190.45C11412.3 3177.69 11420.4 3164.68 11428.3 3151.67C11427.8 3157.32 11427.3 3163.21 11427.3 3168.61C11427.3 3204.19 11434.7 3232.91 11449.9 3254.99C11464.9 3277.08 11484.6 3287.88 11508.9 3287.88C11521.9 3287.88 11536.4 3284.2 11552.4 3276.59C11568.4 3269.23 11585.4 3256.96 11603.1 3240.02C11623.7 3220.39 11642.9 3197.57 11660.8 3171.8C11678.5 3146.03 11693.3 3124.19 11704.3 3106.52C11696 3138.42 11691.6 3165.42 11691.6 3187.99C11691.6 3215.24 11696.5 3236.34 11706.3 3251.31C11716.1 3266.28 11727.7 3276.59 11740.7 3282.24C11753.7 3287.88 11765.5 3290.09 11775.9 3289.35C11796.5 3287.39 11816.9 3277.33 11837.1 3259.17C11847.1 3250.09 11857 3239.78 11866.8 3228.24C11855.8 3250.82 11844.9 3273.4 11833.6 3296.22C11839.3 3291.56 11846.4 3288.86 11854.8 3288.62C11863.1 3288.13 11872.2 3287.39 11881.6 3286.41C11895.6 3285.43 11906.6 3284.44 11914.5 3283.71C11922.4 3282.73 11929.7 3276.35 11936.4 3264.07C11978.7 3183.58 12015.8 3122.71 12048.2 3081.48C12080.7 3040.25 12108.4 3008.35 12132 2986.01C12156.4 2962.7 12176.8 2946.26 12193.2 2936.93C12209.7 2927.61 12222 2922.94 12230.6 2922.94C12240.9 2922.94 12246.1 2928.59 12246.1 2939.88C12246.1 2943.56 12245.4 2948.22 12243.9 2953.86C12242.4 2959.51 12238.5 2967.36 12231.8 2977.67C12208.5 3015.22 12191.5 3044.67 12181.2 3066.27C12170.9 3087.86 12162 3107.99 12154.4 3126.64C12149.7 3140.63 12146.5 3153.64 12144.6 3165.17C12142.6 3176.95 12141.9 3187.99 12141.9 3198.06C12141.9 3233.64 12151.9 3257.94 12172.1 3271.19C12192.3 3284.2 12211.7 3290.83 12230.4 3290.83C12257.6 3290.83 12283 3281.25 12306.3 3262.11C12329.7 3242.97 12351.3 3219.16 12371 3190.45C12390.6 3161.98 12408.3 3132.53 12423.8 3102.59C12439.3 3072.65 12452.6 3046.88 12463.9 3025.28C12469.8 3014.48 12475.4 3004.67 12480.6 2995.83C12498.3 2965.89 12515.3 2943.07 12531.2 2927.61C12547.2 2912.14 12563.4 2901.84 12579.7 2896.68C12596.1 2891.53 12615.5 2889.07 12637.9 2889.07C12656.6 2889.07 12676.7 2891.53 12698.4 2896.19C12720 2900.85 12739.2 2905.03 12756.1 2908.95C12737.5 2928.59 12717.8 2952.88 12697.1 2982.09C12676.5 3011.05 12655.4 3040.74 12633.7 3071.18C12612.1 3101.61 12591.2 3128.85 12571.1 3152.65C12550.9 3176.46 12532.5 3192.66 12515.5 3201C12508.9 3204.68 12496.6 3210.08 12478.1 3217.2C12459.9 3224.32 12442.2 3231.19 12425.3 3238.31C12408.3 3245.42 12398.5 3251.56 12395.8 3257.2C12391.1 3263.83 12388.7 3271.68 12388.7 3281.01C12388.7 3295 12397 3302.11 12414 3302.11C12432.7 3302.11 12450.4 3297.21 12466.8 3287.39C12483.3 3277.57 12500.3 3272.66 12518.2 3272.66C12539.8 3272.66 12566.1 3275.85 12596.9 3282.48C12627.8 3289.11 12663.5 3293.28 12703.8 3295.24C12739.4 3296.22 12772.4 3282.24 12802.8 3253.03C12829.4 3227.75 12854.2 3195.36 12877.3 3156.34C12877.3 3160.51 12876.6 3164.93 12876.6 3168.85C12876.6 3204.44 12884 3233.15 12899.2 3255.24C12914.2 3277.33 12933.9 3288.13 12958.2 3288.13C12971.2 3288.13 12985.7 3284.44 13001.7 3276.84C13017.7 3269.47 13034.4 3257.2 13052.3 3240.27C13073 3220.64 13092.2 3197.81 13110.1 3172.04C13127.8 3146.27 13142.6 3124.43 13153.6 3106.76C13145.3 3138.67 13140.8 3165.66 13140.8 3188.24C13140.8 3215.48 13145.7 3236.59 13155.6 3251.56C13165.4 3266.53 13177 3276.84 13190 3282.48C13203 3288.13 13214.8 3290.33 13225.1 3289.6C13245.8 3287.63 13266.2 3277.57 13286.3 3259.41C13300.6 3246.4 13314.4 3231.19 13328.1 3213.52C13332.8 3227.75 13340.4 3241.74 13351.2 3255.24C13370.4 3279.05 13403.1 3291.07 13449.1 3291.07C13457.4 3291.07 13466.8 3289.84 13476.6 3287.64C13486.4 3285.43 13496 3282.24 13505.4 3278.55C13513.7 3281.25 13522.3 3283.22 13530.7 3284.2C13539 3285.18 13547.1 3285.67 13554.5 3285.67C13586.5 3285.67 13615.2 3277.08 13641 3259.66C13666.9 3242.23 13689.5 3219.9 13709.4 3192.17C13729 3164.68 13746.7 3135.47 13762.2 3105.04C13777.7 3074.61 13791.5 3046.39 13803.8 3020.13C13805.7 3015.47 13805.5 3011.54 13803 3008.1V3007.61ZM13453.5 3266.04C13448.8 3267.51 13443.7 3268.25 13438 3268.25C13421.1 3268.25 13408 3262.6 13398.7 3251.31C13389.3 3240.02 13384.7 3227.02 13384.7 3212.05C13384.7 3191.43 13393 3172.29 13410 3154.37C13412 3181.61 13418.1 3203.7 13428.9 3221.13C13439.7 3238.55 13452 3252.29 13466.3 3262.6C13462.6 3263.58 13458.4 3264.81 13453.7 3266.04H13453.5ZM13491.4 3248.37C13473.7 3241.01 13458.7 3227.02 13447.1 3206.89C13435.3 3186.77 13429.9 3164.93 13430.9 3141.61C13431.9 3123.94 13429.9 3111.91 13425.2 3105.78C13420.6 3099.64 13412.9 3096.21 13402.6 3095.23C13413.9 3073.63 13427.4 3047.37 13443.4 3016.69C13459.4 2985.77 13475.4 2953.62 13491.4 2920.49C13507.3 2887.36 13521.3 2857.91 13533.6 2832.63C13532.6 2837.29 13531.9 2842.2 13531.4 2847.35C13530.9 2852.51 13530.7 2858.4 13530.7 2865.02C13530.7 2896.93 13534.4 2933.5 13542 2974.48C13549.4 3015.71 13553.3 3054.49 13553.3 3091.05C13553.3 3132.28 13546.9 3165.42 13534.4 3190.69C13521.8 3215.97 13507.3 3235.12 13491.4 3248.37Z" fill="#FB5D6B"/>
<path d="M12851 2591.87C13059 2591.87 13288.3 2535.67 13467.5 2420.57L13146 2142.26C13053.1 2176.87 12948.1 2196.26 12858.4 2196.26C12551.4 2196.26 12362.1 2039.43 12333.4 1821.99H13708.2C13776 1098.25 13408.3 734.54 12819.1 734.54C12229.9 734.54 11883.5 1119.6 11883.5 1654.37C11883.5 2217.61 12244.1 2592.12 12851.3 2592.12L12851 2591.87ZM12833.1 1119.36C13083.1 1119.36 13261.5 1233.48 13290 1461.72H12340.2C12404.4 1233.48 12597.4 1119.36 12833.1 1119.36Z" fill="#FB5D6B"/>
<path d="M13591.4 1957.22H13214.3C13181.4 1956.97 13166.1 1997.71 13191 2019.31L13621.6 2392.1C13646.5 2413.7 13684.8 2392.84 13680.1 2360.2L13626.5 1987.65C13624.1 1970.22 13609.1 1957.22 13591.4 1957.22Z" fill="#FB5D6B"/>
</g>
<defs>
<clipPath id="clip0_147_14">
<rect width="13805" height="3469" fill="white"/>
</clipPath>
</defs>
</svg>
