<svg width="594" height="499" viewBox="0 0 594 499" fill="none" xmlns="http://www.w3.org/2000/svg">
<g clip-path="url(#clip0_16_1036)">
<path d="M226.093 429.872H266.977V277.751H226.093L226.093 429.872Z" fill="#FFECED"/>
<path d="M232.91 429.887H226.109V416.19H240.048L232.91 429.887Z" fill="#FFF4F5"/>
<path d="M520.259 429.872H561.143V277.751H520.259V429.872Z" fill="#FFECED"/>
<path d="M226.109 424.623L526.203 424.623V277.766H226.109V424.623Z" fill="#FFF4F5"/>
<path d="M231.393 324.55L520.933 324.55V284.27L231.393 284.27V324.55Z" fill="#FFECED"/>
<path d="M304.628 296.789H447.683C454.316 296.789 460.672 291.815 465.237 283.046H287.074C291.639 291.815 297.98 296.789 304.628 296.789Z" fill="#FFF4F5"/>
<path d="M519.402 429.887H526.203V416.19H512.263L519.402 429.887Z" fill="#FFF4F5"/>
<path d="M231.393 371.334L520.933 371.334V331.055L231.393 331.055V371.334Z" fill="#FFECED"/>
<path d="M304.628 343.573H447.683C454.316 343.573 460.672 338.599 465.237 329.83H287.074C291.639 338.599 297.98 343.573 304.628 343.573Z" fill="#FFF4F5"/>
<path d="M231.393 418.119L520.933 418.119V377.839L231.393 377.839V418.119Z" fill="#FFECED"/>
<path d="M304.628 390.357H447.683C454.316 390.357 460.672 385.383 465.237 376.614H287.074C291.639 385.383 297.98 390.357 304.628 390.357Z" fill="#FFF4F5"/>
<path d="M297 499C461.029 499 594 491.244 594 481.676C594 472.108 461.029 464.352 297 464.352C132.971 464.352 0 472.108 0 481.676C0 491.244 132.971 499 297 499Z" fill="#FFF7F8"/>
<path d="M480.632 472.938H478.993C478.349 472.938 477.798 472.371 477.691 471.606L467.612 401.468H475.271L481.949 471.132C482.041 472.081 481.428 472.922 480.632 472.922V472.938Z" fill="#FCADAC"/>
<path opacity="0.3" d="M480.632 472.938H478.993C478.349 472.938 477.798 472.371 477.691 471.606L467.612 401.468H475.271L481.949 471.132C482.041 472.081 481.428 472.922 480.632 472.922V472.938Z" fill="black"/>
<path d="M501.648 472.938H500.009C499.366 472.938 498.814 472.371 498.707 471.606L488.628 401.468H496.287L502.965 471.132C503.057 472.081 502.444 472.922 501.648 472.922V472.938Z" fill="#FCADAC"/>
<path opacity="0.3" d="M501.648 472.938H500.009C499.366 472.938 498.814 472.371 498.707 471.606L488.628 401.468H496.287L502.965 471.132C503.057 472.081 502.444 472.922 501.648 472.922V472.938Z" fill="black"/>
<path d="M384.558 472.938H386.197C386.84 472.938 387.392 472.371 387.499 471.606L397.578 401.468H389.919L383.24 471.132C383.148 472.081 383.761 472.922 384.558 472.922V472.938Z" fill="#FCADAC"/>
<path opacity="0.3" d="M384.558 472.938H386.197C386.84 472.938 387.392 472.371 387.499 471.606L397.578 401.468H389.919L383.24 471.132C383.148 472.081 383.761 472.922 384.558 472.922V472.938Z" fill="black"/>
<path d="M363.541 472.938H365.18C365.824 472.938 366.375 472.371 366.482 471.606L376.562 401.468H368.903L362.224 471.132C362.132 472.081 362.745 472.922 363.541 472.922V472.938Z" fill="#FCADAC"/>
<path opacity="0.3" d="M363.541 472.938H365.18C365.824 472.938 366.375 472.371 366.482 471.606L376.562 401.468H368.903L362.224 471.132C362.132 472.081 362.745 472.922 363.541 472.922V472.938Z" fill="black"/>
<path d="M336.306 318.337H387.897C397.057 286.582 429.991 261.529 463.721 261.529H480.479C515.787 261.529 538.564 288.969 531.365 322.837C530.048 329.05 527.796 335.049 524.794 340.696L516.66 389.96C515.603 396.326 510.532 401.468 505.324 401.468H350.046C344.838 401.468 339.752 396.311 338.711 389.96L328.785 329.846C327.728 323.495 331.113 318.337 336.321 318.337H336.306Z" fill="#FCADAC"/>
<path opacity="0.5" d="M336.306 318.337H387.897C397.057 286.582 429.991 261.529 463.721 261.529H480.479C515.787 261.529 538.564 288.969 531.365 322.837C530.048 329.05 527.796 335.049 524.794 340.696L516.66 389.96C515.603 396.326 510.532 401.468 505.324 401.468H350.046C344.838 401.468 339.752 396.311 338.711 389.96L328.785 329.846C327.728 323.495 331.113 318.337 336.321 318.337H336.306Z" fill="white"/>
<path d="M323.393 454.787L336.168 460.649C336.628 460.863 336.842 461.353 336.658 461.812L332.645 472.203C332.231 473.274 330.792 473.825 329.719 473.305C325.308 471.193 323.301 469.953 317.679 467.382C314.217 465.791 304.751 460.496 300.493 457.435C296.326 454.435 299.39 450.242 301.473 451.16C310.802 455.277 316.745 455.644 321.126 454.604C321.907 454.42 322.719 454.496 323.408 454.803L323.393 454.787Z" fill="#FB5D6B"/>
<path d="M413.984 298.32C413.984 298.32 332.293 299.33 331.037 331.499C329.229 377.747 322.382 454.512 322.382 454.512L336.153 460.649C336.153 460.649 360.294 383.609 361.152 347.491C384.068 341.783 443.21 347.537 450.149 328.713C455.832 313.318 452.753 298.304 452.753 298.304H413.968L413.984 298.32Z" fill="#FCADAC"/>
<path opacity="0.2" d="M413.984 298.32C413.984 298.32 332.293 299.33 331.037 331.499C329.229 377.747 322.382 454.512 322.382 454.512L336.153 460.649C336.153 460.649 360.294 383.609 361.152 347.491C384.068 341.783 443.21 347.537 450.149 328.713C455.832 313.318 452.753 298.304 452.753 298.304H413.968L413.984 298.32Z" fill="black"/>
<path d="M431.369 213.674C430.665 216.643 429.945 219.321 429.118 222.106C428.306 224.861 427.463 227.6 426.59 230.324C424.798 235.772 422.822 241.19 420.539 246.546C418.272 251.918 415.745 257.229 412.666 262.478C411.104 265.095 409.449 267.727 407.473 270.283C405.497 272.839 403.276 275.394 400.35 277.797L400.121 277.981C399.967 278.118 399.784 278.241 399.615 278.348C397.67 279.634 395.847 280.016 394.468 280.184C393.059 280.338 391.925 280.276 390.976 280.154C389.046 279.924 387.621 279.481 386.288 279.021C383.669 278.088 381.509 277.017 379.426 275.899C375.305 273.68 371.644 271.201 368.045 268.676C364.491 266.12 361.06 263.473 357.72 260.718C354.412 257.917 351.164 255.163 348.009 252.117C346.155 250.327 346.094 247.373 347.886 245.506C349.387 243.945 351.716 243.654 353.523 244.664L353.6 244.71C357.215 246.715 360.861 248.842 364.522 250.801C368.167 252.821 371.798 254.811 375.428 256.662C379.043 258.545 382.704 260.305 386.197 261.743C387.927 262.447 389.658 263.059 391.083 263.381C391.772 263.534 392.4 263.61 392.569 263.58C392.676 263.58 392.599 263.519 392.247 263.549C391.91 263.58 391.144 263.687 390.072 264.36L389.352 264.911C390.654 263.687 392.033 261.958 393.319 260.029C394.591 258.086 395.847 255.974 397.011 253.755C399.324 249.286 401.392 244.48 403.291 239.568C405.175 234.64 406.937 229.59 408.576 224.478C410.246 219.413 411.747 214.117 413.141 209.159L413.187 208.975C414.581 203.986 419.743 201.078 424.737 202.471C429.608 203.833 432.503 208.792 431.339 213.674H431.369Z" fill="#FB5D6B"/>
<path d="M398.267 461.429H413.6C414.152 461.429 414.581 461.812 414.611 462.362L415.346 474.483C415.423 475.738 414.244 476.932 412.957 476.901C407.626 476.809 405.068 476.503 398.328 476.503C394.177 476.503 385.813 476.932 380.1 476.932C374.386 476.932 374.539 471.269 376.96 470.764C387.835 468.469 392.063 465.301 395.908 462.271C396.597 461.72 397.44 461.429 398.252 461.429H398.267Z" fill="#FB5D6B"/>
<path d="M436.011 298.32C436.011 298.32 361.918 304.579 363.74 336.717C365.732 371.916 398.267 461.444 398.267 461.444H413.248C413.248 461.444 400.427 379.461 395.908 343.619C416.786 343.619 465.222 347.552 472.176 328.729C477.859 313.333 474.78 298.32 474.78 298.32H435.995H436.011Z" fill="#FCADAC"/>
<path d="M354.718 246.24C354.718 246.24 352.589 242.782 350.552 241.129C347.519 243.96 345.818 252.24 345.818 252.24L350.015 252.622C350.015 252.622 354.825 251.061 354.733 246.24H354.718Z" fill="#FCADAC"/>
<path d="M339.339 238.803L334.575 236.737C333.288 236.186 331.802 236.66 331.083 237.854L328.831 241.588C328.187 242.659 328.341 244.037 329.198 244.955L335.739 251.78L346.646 251.337C347.902 251.291 349.035 250.571 349.602 249.454L350.858 246.99C351.655 245.445 351.21 243.516 349.77 242.567C346.232 240.226 339.339 238.818 339.339 238.818V238.803Z" fill="#E0E7E9"/>
<path d="M413.294 210.521C411.104 224.249 408.285 254.03 414.06 298.886L474.796 298.32C474.428 267.253 479.314 238.068 484.063 209.557C484.86 204.828 481.597 200.436 476.848 199.747C462.266 197.65 438.707 197.727 424.415 199.701C418.732 200.482 414.198 204.859 413.294 210.521Z" fill="#FB5D6B"/>
<path d="M484.614 205.685C486.391 210.108 487.831 214.347 489.302 218.724C490.757 223.07 492.028 227.493 493.238 231.947C494.403 236.415 495.506 240.93 496.348 245.567C497.206 250.204 497.956 254.918 498.217 259.922C498.293 261.162 498.324 262.447 498.339 263.733L498.309 265.692C498.278 267.069 498.064 269.181 496.792 271.415C496.18 272.502 495.23 273.619 494.249 274.384C493.729 274.813 493.239 275.134 492.733 275.41C492.197 275.716 491.737 275.915 491.262 276.083C489.394 276.772 487.938 276.864 486.759 276.864C484.446 276.818 482.868 276.42 481.398 276.022C478.518 275.195 476.22 274.17 473.969 273.099C471.747 272.012 469.664 270.849 467.627 269.671C459.524 264.865 452.232 259.524 445.171 253.602C443.195 251.949 442.934 248.995 444.589 247.021C445.983 245.353 448.296 244.909 450.18 245.797L450.287 245.843C458.206 249.607 466.264 253.479 474.106 256.724C476.067 257.535 478.012 258.285 479.912 258.912C481.781 259.555 483.68 260.121 485.151 260.335C485.84 260.443 486.483 260.427 486.407 260.366C486.345 260.351 486.024 260.289 485.181 260.565C484.982 260.641 484.768 260.733 484.477 260.886C484.216 261.024 483.956 261.208 483.649 261.437C483.098 261.866 482.516 262.539 482.164 263.136C481.428 264.406 481.398 265.37 481.367 265.646L481.275 264.268C481.183 263.32 481.107 262.386 480.969 261.391C479.927 253.54 477.706 245.184 475.255 236.966C472.789 228.763 469.986 220.361 467.106 212.388L467.075 212.312C465.329 207.445 467.857 202.073 472.728 200.329C477.476 198.615 482.715 201.002 484.599 205.639L484.614 205.685Z" fill="#FB5D6B"/>
<path d="M460.335 168.971L452.983 175.062L442.98 183.356C443.271 184.703 443.501 186.08 443.608 187.397C444.083 192.217 443.026 196.656 437.159 198.905C434.938 199.747 433.008 201.369 432.319 203.634C431.522 206.205 432.457 209.052 440.529 209.052C452.37 209.052 458.543 203.787 460.872 201.201C461.53 200.466 461.53 199.395 460.964 198.599C456.276 191.957 458.421 177.265 460.335 168.971Z" fill="#E0E7E9"/>
<path d="M440.238 206.45C440.238 206.45 441.02 207.307 441.265 208.532C441.877 207.491 443.486 206.45 443.486 206.45C443.486 206.45 446.994 208.011 447.729 211.424C445.477 211.286 441.357 209.052 441.357 209.052C441.357 209.052 439.227 210.276 437.098 210.383C437.19 207.736 440.238 206.45 440.238 206.45Z" fill="#FCADAC"/>
<path d="M443.486 206.45C446.886 210.276 447.545 215.372 447.545 215.372C447.545 215.372 467.152 210.475 466.233 197.712C464.579 196.671 460.795 196.043 460.795 196.043C460.795 196.043 456.583 203.695 443.486 206.45Z" fill="#FCADAC"/>
<path d="M440.238 206.45C436.838 210.276 435.919 215.372 435.919 215.372C435.919 215.372 425.855 206.221 435.658 197.819C437.389 197.115 440.836 196.732 440.836 196.732C440.836 196.732 434.326 202.012 440.223 206.45H440.238Z" fill="#FCADAC"/>
<path opacity="0.2" d="M442.98 183.356C443.271 184.703 443.501 186.081 443.608 187.397C447.346 186.647 452.324 182.683 452.845 178.872C453.044 177.434 453.075 176.057 452.983 175.062L442.98 183.356Z" fill="black"/>
<path d="M432.242 142.602C423.021 149.137 428.183 164.471 436.041 158.595C443.915 152.733 439.748 137.276 432.242 142.602Z" fill="#FB5D6B"/>
<path d="M463.369 156.253C460.811 167.991 459.922 174.97 452.983 180.326C442.551 188.376 428.719 181.229 427.708 169.093C426.789 158.166 431.124 140.812 443.486 137.491C455.664 134.216 465.927 144.53 463.384 156.269L463.369 156.253Z" fill="#E0E7E9"/>
<path d="M457.931 147.561C451.42 145.77 434.632 150.04 428.673 143.689C422.286 136.878 431.614 133.573 434.356 135.93C430.879 131.951 432.181 127.696 437.098 128.079C440.698 128.354 441.831 132.333 441.831 132.333C441.831 132.333 441.234 125.37 447.407 125.86C453.014 126.288 453.029 133.848 453.029 133.848C453.029 133.848 466.417 130.068 470.89 142.832C479.314 142.648 479.131 160.37 462.174 166.675C455.296 163.262 454.974 151.188 457.915 147.561H457.931Z" fill="#FB5D6B"/>
<path d="M469.097 145.387C468.286 145.387 467.566 144.806 467.428 143.979C467.259 143.061 467.872 142.174 468.791 142.005C468.944 141.959 469.404 141.592 469.771 140.766C470.17 139.893 470.43 138.608 469.955 137.582C469.572 136.725 469.955 135.715 470.798 135.333C471.656 134.935 472.667 135.333 473.049 136.174C474.076 138.409 473.524 140.949 472.682 142.556C471.87 144.102 470.66 145.127 469.388 145.357C469.281 145.372 469.189 145.387 469.082 145.387H469.097Z" fill="#FB5D6B"/>
<path d="M465.283 167.134C463.552 169.399 461.04 170.731 458.834 171.129C455.51 171.71 454.5 168.665 455.97 165.696C457.287 163.033 460.611 159.513 463.675 160.278C466.693 161.028 467.244 164.563 465.268 167.15L465.283 167.134Z" fill="#E0E7E9"/>
<path d="M443.256 157.34C443.103 158.304 442.475 159.023 441.847 158.947C441.219 158.87 440.821 158.029 440.974 157.064C441.127 156.1 441.755 155.381 442.383 155.457C443.011 155.534 443.409 156.376 443.256 157.34Z" fill="#FB5D6B"/>
<path d="M432.319 156.039C432.166 157.003 431.538 157.723 430.91 157.646C430.282 157.569 429.884 156.728 430.037 155.764C430.19 154.799 430.818 154.08 431.446 154.157C432.074 154.233 432.472 155.075 432.319 156.039Z" fill="#FB5D6B"/>
<path d="M435.643 156.422C435.643 156.422 433.345 161.089 431.078 163.278C432.426 164.716 434.969 164.227 434.969 164.227L435.643 156.422Z" fill="#BBCBD0"/>
<path d="M439.457 169.17C443.302 169.17 445.446 166.782 445.538 166.675C445.646 166.553 445.63 166.369 445.508 166.277C445.385 166.17 445.201 166.185 445.109 166.308C445.079 166.338 442.643 169.063 438.385 168.557C438.232 168.542 438.079 168.649 438.063 168.802C438.048 168.955 438.155 169.108 438.308 169.124C438.707 169.17 439.074 169.185 439.442 169.185L439.457 169.17Z" fill="#FB5D6B"/>
<path d="M447.652 151.784C447.744 151.769 447.836 151.723 447.913 151.647C448.142 151.432 448.173 151.08 447.959 150.836C445.875 148.494 443.256 148.923 443.149 148.938C442.858 148.953 442.628 149.29 442.689 149.596C442.75 149.902 443.041 150.116 443.348 150.055C443.455 150.04 445.477 149.749 447.101 151.585C447.239 151.754 447.453 151.8 447.652 151.769V151.784Z" fill="#FB5D6B"/>
<path d="M428.413 151.157C428.581 151.203 428.781 151.172 428.934 151.05C430.94 149.382 432.993 149.933 433.008 149.948C433.315 150.04 433.636 149.856 433.713 149.55C433.805 149.244 433.621 148.938 433.315 148.846C433.207 148.815 430.649 148.127 428.199 150.177C427.953 150.376 427.923 150.744 428.122 150.989C428.199 151.08 428.29 151.142 428.398 151.172L428.413 151.157Z" fill="#FB5D6B"/>
<path d="M448.357 237.884L441.648 233.722C439.641 232.467 436.991 233.11 435.766 235.13L434.969 236.431C434.019 238.007 434.188 240.027 435.398 241.42L440.024 246.73C440.024 246.73 444.053 256.111 448.725 253.632L452.278 247.465L448.342 237.884H448.357Z" fill="#E0E7E9"/>
<path d="M455.25 249.867C455.25 249.867 453.565 245.72 451.742 243.623C448.372 246.5 445.646 255.698 445.646 255.698L449.766 256.586C449.766 256.586 454.744 255.346 455.25 249.867Z" fill="#FCADAC"/>
<path d="M506.596 318.337H427.065C421.857 318.337 418.472 323.495 419.528 329.846L429.454 389.96C430.511 396.326 435.582 401.468 440.79 401.468H496.746L506.596 318.337Z" fill="#FCADAC"/>
<path opacity="0.5" d="M506.596 318.337H427.065C421.857 318.337 418.472 323.495 419.528 329.846L429.454 389.96C430.511 396.326 435.582 401.468 440.79 401.468H496.746L506.596 318.337Z" fill="white"/>
<path d="M139.654 478.095H141.951C142.733 478.095 143.376 477.437 143.437 476.58L156.075 286.979H146.578L138.168 476.381C138.122 477.314 138.811 478.095 139.654 478.095Z" fill="#FCADAC"/>
<path opacity="0.3" d="M139.654 478.095H141.951C142.733 478.095 143.376 477.437 143.437 476.58L156.075 286.979H146.578L138.168 476.381C138.122 477.314 138.811 478.095 139.654 478.095Z" fill="white"/>
<path d="M113.613 478.095H115.911C116.692 478.095 117.336 477.437 117.397 476.58L130.034 286.979H120.537L112.127 476.381C112.081 477.314 112.771 478.095 113.613 478.095Z" fill="#FCADAC"/>
<path opacity="0.3" d="M113.613 478.095H115.911C116.692 478.095 117.336 477.437 117.397 476.58L130.034 286.979H120.537L112.127 476.381C112.081 477.314 112.771 478.095 113.613 478.095Z" fill="white"/>
<path d="M434.754 478.095H432.457C431.675 478.095 431.032 477.437 430.971 476.58L418.333 286.979H427.831L436.24 476.381C436.286 477.314 435.597 478.095 434.754 478.095Z" fill="#FCADAC"/>
<path opacity="0.3" d="M434.754 478.095H432.457C431.675 478.095 431.032 477.437 430.971 476.58L418.333 286.979H427.831L436.24 476.381C436.286 477.314 435.597 478.095 434.754 478.095Z" fill="white"/>
<path d="M460.795 478.095H458.497C457.716 478.095 457.073 477.437 457.011 476.58L444.374 286.979H453.871L462.281 476.381C462.327 477.314 461.637 478.095 460.795 478.095Z" fill="#FCADAC"/>
<path opacity="0.3" d="M460.795 478.095H458.497C457.716 478.095 457.073 477.437 457.011 476.58L444.374 286.979H453.871L462.281 476.381C462.327 477.314 461.637 478.095 460.795 478.095Z" fill="white"/>
<path d="M471.747 283.092H102.125V286.995H471.747V283.092Z" fill="#FCADAC"/>
<path d="M95.9671 222.703L92.4746 248.368C91.3717 256.907 90.2228 265.477 89.3957 273.895C89.2731 274.951 89.1965 275.991 89.1199 277.032L88.9974 278.593C88.9974 278.486 88.9974 278.073 88.9361 277.828C88.9055 277.583 88.8289 277.307 88.7523 277.093C88.7063 276.909 88.5991 276.695 88.5225 276.557C88.4613 276.435 88.3694 276.297 88.3081 276.205C88.0324 275.853 88.0017 275.899 88.0783 275.976C88.1396 276.068 88.354 276.236 88.5991 276.404C89.1199 276.772 89.8399 277.2 90.6211 277.583C93.8685 279.174 97.8971 280.521 101.864 281.761C109.906 284.194 118.331 286.306 126.664 288.357L125.73 295.672C116.815 295.351 108.068 294.524 99.1685 292.917C94.711 292.076 90.2841 291.142 85.5202 289.321C84.3101 288.847 83.0847 288.311 81.7367 287.546C81.0627 287.148 80.3734 286.719 79.5922 286.092C78.8416 285.464 78.0144 284.745 77.1413 283.49C76.7124 282.847 76.2988 282.082 75.9771 281.149C75.8239 280.674 75.7014 280.139 75.6095 279.634C75.5329 279.129 75.5176 278.44 75.5176 278.057L75.5482 276.359C75.5789 275.226 75.5942 274.094 75.6554 272.976C76.0231 264.039 76.8196 255.316 77.7846 246.592C78.719 237.869 79.8372 229.222 81.2005 220.53L95.9364 222.703H95.9671Z" fill="#FFC0BF"/>
<path d="M145.98 296.085L140.359 301.212C139.041 302.406 137.142 302.696 135.533 301.916L129.33 298.932C129.33 298.932 120.123 298.549 118.806 292.933L121.18 288.571L135.441 286.995C136.912 286.826 138.383 287.163 139.639 287.928L145.521 291.509C147.16 292.504 147.374 294.8 145.965 296.085H145.98Z" fill="#FFC0BF"/>
<path d="M112.342 169.966C113.797 178.765 115.038 194.85 108.727 200.512C108.727 200.512 124.106 208.562 134.201 222.611C144.985 214.072 135.962 201.323 135.962 201.323C126.266 198.706 126.726 191.468 128.64 184.719L112.357 169.966H112.342Z" fill="#FFC0BF"/>
<path d="M141.124 206.741C141.124 206.741 140.313 199.273 136.238 195.584C132.807 192.478 114.839 194.207 109.171 194.834C108.099 194.957 107.18 195.615 106.72 196.579L102.615 205.149L141.124 206.741Z" fill="#FCADAC"/>
<path opacity="0.8" d="M141.124 206.741C141.124 206.741 140.313 199.273 136.238 195.584C132.807 192.478 114.839 194.207 109.171 194.834C108.099 194.957 107.18 195.615 106.72 196.579L102.615 205.149L141.124 206.741Z" fill="white"/>
<path d="M91.3257 202.808C80.2355 206.42 77.8459 221.264 78.8416 232.834L101.221 246.592C101.221 246.592 106.659 229.712 106.613 220.683C106.567 211.087 98.8469 200.359 91.3104 202.793L91.3257 202.808Z" fill="#FCADAC"/>
<path d="M95.6606 243.226C95.1245 243.226 94.5884 243.011 94.1901 242.629C94.0982 242.522 94.0063 242.414 93.945 242.307C93.8684 242.2 93.7918 242.078 93.7459 241.94C93.6999 241.818 93.654 241.695 93.6233 241.557C93.5927 241.42 93.5774 241.297 93.5774 241.16C93.5774 240.609 93.8072 240.073 94.1901 239.69C94.9713 238.91 96.3653 238.91 97.1312 239.69C97.5141 240.073 97.7439 240.609 97.7439 241.16C97.7439 241.297 97.7439 241.42 97.6979 241.557C97.6673 241.695 97.6367 241.818 97.5754 241.94C97.5294 242.078 97.4682 242.2 97.3916 242.307C97.315 242.414 97.2231 242.522 97.1312 242.629C96.7482 243.011 96.2121 243.226 95.6606 243.226Z" fill="white"/>
<path d="M91.3565 241.818C90.5599 241.511 90.0545 240.762 90.0238 239.95C89.4264 240.486 88.5533 240.654 87.7721 240.287C87.0062 239.935 86.5466 239.155 86.562 238.359C85.9339 238.864 85.0455 238.971 84.2949 238.558C83.5443 238.16 83.146 237.364 83.2073 236.568C82.5486 237.027 81.6602 237.089 80.9249 236.645C79.9446 236.063 79.6382 234.778 80.2203 233.798C80.8177 232.819 82.1044 232.497 83.0848 233.094C83.7741 233.523 84.1264 234.288 84.0804 235.038C84.6932 234.594 85.5357 234.518 86.2556 234.9C86.9602 235.283 87.3738 236.017 87.3585 236.783C87.9406 236.308 88.7831 236.186 89.5183 236.522C90.2536 236.859 90.6978 237.578 90.7284 238.328C91.2952 237.838 92.1071 237.655 92.873 237.946C93.9299 238.374 94.466 239.583 94.0371 240.639C93.7154 241.466 92.9342 241.955 92.1071 241.955C91.8467 241.955 91.6016 241.909 91.3412 241.818H91.3565Z" fill="white"/>
<path d="M78.8569 234.916C78.7191 234.916 78.5812 234.916 78.4433 234.87C78.3055 234.839 78.1829 234.808 78.0604 234.747C77.9225 234.701 77.8 234.64 77.6928 234.564C77.5855 234.487 77.4783 234.395 77.3864 234.303C77.2792 234.212 77.2026 234.104 77.126 233.997C77.0494 233.875 76.9881 233.752 76.9269 233.63C76.8809 233.508 76.835 233.37 76.8043 233.247C76.8043 233.11 76.7737 232.972 76.7737 232.834C76.7737 232.696 76.789 232.559 76.8043 232.436C76.835 232.299 76.8809 232.176 76.9269 232.038C76.9728 231.916 77.0494 231.794 77.126 231.686C77.2026 231.579 77.2792 231.472 77.3864 231.365C77.4783 231.273 77.5855 231.181 77.6928 231.105C77.8 231.044 77.9225 230.967 78.0604 230.921C78.1829 230.875 78.3055 230.829 78.4433 230.799C79.1173 230.676 79.8373 230.891 80.3121 231.365C80.4194 231.472 80.4959 231.579 80.5725 231.686C80.6491 231.794 80.7104 231.916 80.7717 232.038C80.8176 232.176 80.8636 232.299 80.8789 232.436C80.9095 232.559 80.9249 232.696 80.9249 232.834C80.9249 232.972 80.9248 233.11 80.8789 233.247C80.8636 233.37 80.8176 233.508 80.7717 233.63C80.7104 233.752 80.6491 233.875 80.5725 233.997C80.4959 234.104 80.4194 234.212 80.3121 234.303C79.9292 234.686 79.3931 234.916 78.8569 234.916Z" fill="white"/>
<path d="M161.85 224.402C160.915 237.135 158.082 258.56 151.097 294.647L91.142 292.871C92.7198 270.757 90.3455 254.275 84.9229 215.571C83.9273 208.501 89.0128 202.043 96.1204 201.323C99.9652 200.925 104.346 200.604 108.742 200.512C118.852 200.329 127.124 200.252 135.962 201.323C138.888 201.675 141.906 202.134 144.786 202.624C155.248 204.399 162.631 213.827 161.85 224.386V224.402Z" fill="#FCADAC"/>
<path d="M143.361 153.759C143.499 154.937 144.249 155.825 145.015 155.733C145.781 155.641 146.302 154.6 146.164 153.422C146.026 152.243 145.276 151.356 144.51 151.448C143.744 151.54 143.223 152.58 143.361 153.759Z" fill="#FB5D6B"/>
<path d="M144.173 151.555L146.915 150.392C146.915 150.392 145.72 152.779 144.173 151.555Z" fill="#FB5D6B"/>
<path d="M143.774 155.595C143.774 155.595 146.394 160.447 148.891 162.635C147.497 164.273 144.77 163.936 144.77 163.936L143.774 155.611V155.595Z" fill="#78AEFF"/>
<path d="M143.499 143.398C143.637 143.199 143.667 142.939 143.545 142.709C143.376 142.357 142.963 142.219 142.61 142.372C139.118 144.025 138.643 147.224 138.628 147.362C138.582 147.744 138.842 148.096 139.225 148.142C139.608 148.188 139.96 147.928 140.006 147.545C140.022 147.438 140.42 144.959 143.208 143.627C143.33 143.566 143.422 143.49 143.483 143.382L143.499 143.398Z" fill="#FB5D6B"/>
<path d="M102.554 153.498C105.188 167.899 106 174.052 114.226 180.632C126.603 190.519 143.744 184.137 145.475 169.231C147.037 155.825 142.457 134.506 127.553 130.435C112.863 126.426 99.9343 139.082 102.569 153.498H102.554Z" fill="#FFC0BF"/>
<path d="M134.308 157.523C136.743 165.436 142.534 184.581 129.743 188.835C119.74 192.172 88.3999 194.834 84.7849 176.485C81.0473 157.523 97.989 144.01 97.989 144.01C97.989 144.01 84.5704 133.022 93.1638 121.054C104.239 105.628 130.754 114.351 138.628 125.247C146.287 135.853 134.308 157.508 134.308 157.508V157.523Z" fill="#FB5D6B"/>
<path d="M110.06 191.468C104.928 191.468 98.571 190.427 93.317 188.162C86.1941 185.101 82.043 180.372 81.3077 174.48C78.7956 154.478 97.4222 143.49 97.606 143.383L98.3413 144.668C98.1575 144.775 80.3733 155.289 82.7629 174.312C83.6054 181.061 89.2884 184.841 93.8837 186.815C102.983 190.733 114.731 190.702 117.581 188.621L118.454 189.815C116.968 190.901 113.843 191.483 110.029 191.483L110.06 191.468Z" fill="#FB5D6B"/>
<path d="M92.2142 141.163C92.0457 143.719 89.9165 147.239 98.8009 148.555C107.685 149.871 120.016 149.749 122.544 147.622C125.071 145.494 127.568 140.383 122.268 140.842C116.968 141.301 92.4899 136.787 92.1989 141.163H92.2142Z" fill="#FCADAC"/>
<path d="M129.467 159.788C130.984 162.666 133.695 164.579 136.269 165.344C140.129 166.476 142.12 163.033 141.094 159.36C140.159 156.054 137.035 151.478 133.128 151.968C129.284 152.443 127.737 156.513 129.483 159.804L129.467 159.788Z" fill="#FFC0BF"/>
<path d="M222.922 462.271L237.138 461.995L230.26 426.551L216.045 426.811L222.922 462.271Z" fill="#FFC0BF"/>
<path d="M233.584 446.829C237.352 460.97 251.169 475.952 251.169 475.952L231.439 470.948L222.815 458.705L224.332 455.46L233.584 446.814V446.829Z" fill="#FFC0BF"/>
<path d="M219.568 453.41C219.506 454.986 219.629 456.776 219.859 458.368C220.686 464.214 223.275 479.732 223.275 479.732H224.607C224.607 479.732 223.336 469.295 223.52 465.454C223.704 461.612 226.185 468.407 229.187 472.264C232.19 476.121 237.597 479.625 246.344 479.885C256.576 480.207 260.666 479.778 257.388 477.222C254.11 474.667 247.125 472.999 247.125 472.999C247.125 472.999 239.067 470.106 233.308 461.459C229.57 455.858 223.321 451.787 220.594 450.471C219.767 450.609 219.598 452.17 219.552 453.41H219.568Z" fill="#FB5D6B"/>
<path d="M273.273 414.109L291.409 414.66L271.113 384.527L258.552 395.255L273.273 414.109Z" fill="#FFC0BF"/>
<path d="M277.577 401.3C290.766 407.437 311.874 406.228 311.874 406.228L294.718 419.986L279.997 418.899L278.45 415.64L277.592 401.315L277.577 401.3Z" fill="#FFC0BF"/>
<path d="M274.789 416.94C275.907 418.058 277.301 419.19 278.603 420.108C283.413 423.46 296.418 432.045 296.418 432.045L297.245 431.005C297.245 431.005 288.79 424.853 286.078 422.083C283.367 419.297 289.893 422.006 294.58 422.282C299.267 422.557 305.18 420.705 310.771 414.017C317.327 406.197 319.533 402.693 315.627 403.519C311.721 404.345 306.191 408.692 306.191 408.692C306.191 408.692 299.099 413.038 289.173 411.645C282.739 410.742 275.892 412.885 273.257 414.109C272.859 414.859 273.885 416.053 274.774 416.94H274.789Z" fill="#FB5D6B"/>
<path d="M130.187 293.606C130.187 293.606 227.242 279.266 237.291 304.12C254.768 347.369 279.461 396.923 279.461 396.923L267.544 406.778C267.544 406.778 225.22 367.646 210.162 324.183C192.179 329.999 134.967 348.7 114.012 348.7C91.6321 348.7 82.4873 329.631 90.5751 297.983C91.2951 295.167 93.8685 293.208 96.7789 293.223C110.871 293.3 130.172 293.606 130.172 293.606H130.187Z" fill="#FB5D6B"/>
<path d="M139.485 306.232C139.485 306.232 219.154 303.829 219.813 332.034C220.931 378.665 234.074 445.482 234.074 445.482L219.537 446.829C219.537 446.829 195.779 393.678 189.499 348.134C161.114 349.97 134.967 348.7 114.012 348.7C90.5292 348.7 88.5838 322.928 111.438 292.871C125.408 292.871 139.47 306.232 139.47 306.232H139.485Z" fill="#FB5D6B"/>
<path d="M90.3453 289.321L88.645 294.631C88.4152 295.045 88.9054 295.473 89.5947 295.504L151.295 297.34C151.832 297.355 152.291 297.111 152.337 296.774L153.042 291.433C153.088 291.066 152.628 290.729 152.046 290.714L91.3409 288.908C90.8967 288.908 90.4984 289.061 90.3453 289.321Z" fill="white"/>
<path d="M98.2955 296.345L96.6718 296.3C96.3501 296.3 96.105 296.116 96.1356 295.917L97.1007 288.969C97.1313 288.77 97.4224 288.602 97.744 288.617L99.3677 288.663C99.6894 288.663 99.9345 288.846 99.9039 289.045L98.9388 295.993C98.9082 296.192 98.6172 296.361 98.2955 296.345Z" fill="#FB5D6B"/>
<path d="M146.716 297.784L145.092 297.738C144.77 297.738 144.525 297.554 144.556 297.355L145.521 290.407C145.551 290.208 145.843 290.04 146.164 290.055L147.788 290.101C148.11 290.101 148.355 290.285 148.324 290.484L147.359 297.432C147.328 297.631 147.037 297.799 146.716 297.784Z" fill="#FB5D6B"/>
<path d="M122.513 297.065L120.89 297.019C120.568 297.019 120.323 296.835 120.353 296.636L121.318 289.688C121.349 289.489 121.64 289.321 121.962 289.336L123.586 289.382C123.907 289.382 124.152 289.566 124.122 289.765L123.157 296.713C123.126 296.912 122.835 297.08 122.513 297.065Z" fill="#FB5D6B"/>
<path d="M196.392 229.727H235.146C236.387 229.727 237.275 230.921 236.923 232.099L222.448 281.761C222.218 282.556 221.498 283.092 220.671 283.092H181.916C180.675 283.092 179.787 281.898 180.139 280.72L194.615 231.059C194.845 230.263 195.565 229.727 196.392 229.727Z" fill="#FCADAC"/>
<path d="M197.112 231.549L234.778 232.436L219.905 279.266L182.238 278.379L197.112 231.549Z" fill="#FEE7E9"/>
<path d="M195.932 231.089L233.599 231.242L219.644 278.363L181.978 278.195L195.932 231.089Z" fill="white"/>
<path d="M161.957 232.054C162.033 233.553 162.171 235.405 162.309 237.104C162.462 238.833 162.646 240.578 162.876 242.307C163.305 245.766 163.887 249.179 164.592 252.53C165.327 255.867 166.2 259.126 167.333 262.187C167.9 263.718 168.513 265.187 169.202 266.595C169.539 267.314 169.907 267.972 170.275 268.63L170.841 269.564C170.841 269.564 170.734 269.502 170.78 269.564C170.887 269.809 171.975 270.497 173.216 270.987C174.502 271.507 176.034 271.936 177.627 272.303C180.844 273.038 184.336 273.527 187.875 273.879C194.952 274.568 202.335 274.905 209.58 275.058L210.316 282.388C202.749 283.842 195.258 284.76 187.477 284.959C183.586 285.051 179.649 284.975 175.529 284.47C173.461 284.194 171.362 283.827 169.11 283.169C166.874 282.465 164.454 281.654 161.788 279.389C161.13 278.838 160.471 278.119 159.858 277.307L158.878 275.93C158.265 275.027 157.653 274.109 157.116 273.175C155.998 271.324 155.064 269.426 154.221 267.513C152.536 263.687 151.265 259.815 150.269 255.943C149.258 252.056 148.523 248.169 147.987 244.251C147.726 242.292 147.527 240.333 147.359 238.374C147.19 236.369 147.083 234.518 147.052 232.299L161.942 232.054H161.957Z" fill="#FFC0BF"/>
<path d="M156.917 209.496C166.568 218.571 164.239 242.216 164.239 242.216L145.751 245.445C145.751 245.445 134.339 228.488 138.352 221.387C142.534 213.98 151.694 204.598 156.917 209.496Z" fill="#FCADAC"/>
<path d="M164.239 244.297C163.703 244.297 163.152 244.067 162.769 243.685C162.677 243.593 162.585 243.486 162.508 243.363C162.447 243.256 162.371 243.134 162.325 243.011C162.279 242.889 162.233 242.751 162.202 242.613C162.202 242.491 162.171 242.353 162.171 242.215C162.171 241.664 162.386 241.129 162.769 240.746C162.876 240.654 162.968 240.563 163.09 240.486C163.198 240.41 163.32 240.348 163.443 240.302C163.581 240.241 163.703 240.211 163.841 240.18C164.5 240.042 165.22 240.272 165.71 240.746C166.093 241.129 166.323 241.664 166.323 242.215C166.323 242.353 166.323 242.491 166.277 242.613C166.246 242.751 166.215 242.889 166.154 243.011C166.108 243.134 166.047 243.256 165.97 243.363C165.894 243.486 165.802 243.593 165.71 243.685C165.327 244.067 164.791 244.297 164.239 244.297Z" fill="white"/>
<path d="M147.451 245.399C147.359 244.251 148.202 243.241 149.35 243.149C150.147 243.072 150.897 243.47 151.296 244.128C151.541 243.409 152.169 242.843 152.965 242.72C153.762 242.613 154.528 242.965 154.972 243.593C155.171 242.858 155.769 242.261 156.55 242.108C157.346 241.94 158.128 242.261 158.602 242.858C158.756 242.108 159.322 241.481 160.104 241.266C161.222 240.976 162.355 241.649 162.646 242.751C162.937 243.853 162.279 245.001 161.161 245.291C160.349 245.506 159.506 245.2 159.001 244.572C158.832 245.353 158.219 245.995 157.377 246.179C156.55 246.332 155.723 245.98 155.263 245.322C155.049 246.103 154.405 246.715 153.563 246.837C152.72 246.96 151.908 246.546 151.495 245.873C151.234 246.623 150.56 247.204 149.703 247.281H149.534C148.462 247.281 147.558 246.47 147.451 245.399Z" fill="white"/>
<path d="M145.766 247.526C145.628 247.526 145.49 247.511 145.352 247.48C145.214 247.449 145.092 247.404 144.969 247.358C144.831 247.312 144.724 247.235 144.602 247.174C144.494 247.097 144.387 247.006 144.295 246.914C144.188 246.822 144.112 246.715 144.035 246.592C143.958 246.485 143.897 246.363 143.836 246.24C143.79 246.103 143.744 245.98 143.729 245.842C143.698 245.72 143.683 245.582 143.683 245.445C143.683 245.307 143.683 245.169 143.729 245.031C143.744 244.909 143.79 244.771 143.836 244.649C143.897 244.526 143.958 244.404 144.035 244.281C144.112 244.174 144.188 244.067 144.295 243.975C144.387 243.884 144.494 243.792 144.602 243.715C144.724 243.639 144.831 243.578 144.969 243.532C145.092 243.47 145.214 243.44 145.352 243.409C146.026 243.271 146.746 243.486 147.221 243.975C147.328 244.067 147.405 244.174 147.481 244.281C147.558 244.404 147.619 244.526 147.681 244.649C147.727 244.771 147.773 244.909 147.803 245.031C147.803 245.169 147.834 245.307 147.834 245.445C147.834 245.582 147.818 245.72 147.803 245.842C147.773 245.98 147.727 246.103 147.681 246.24C147.619 246.363 147.558 246.485 147.481 246.592C147.405 246.7 147.328 246.822 147.221 246.914C146.838 247.296 146.302 247.526 145.766 247.526Z" fill="white"/>
<path d="M226.844 267.39L220.441 266.962C218.848 266.855 217.255 267.283 215.937 268.171L204.189 276.052L204.097 281.026C207.865 285.403 216.198 281.485 216.198 281.485L223.933 281.241C225.19 281.195 226.308 280.399 226.737 279.205L229.54 271.538C230.244 269.61 228.896 267.528 226.844 267.39Z" fill="#FFC0BF"/>
<path d="M94.1747 484.982H95.9057C96.5796 484.982 97.1617 484.385 97.2843 483.574L107.946 409.441H99.8577L92.7961 483.084C92.7042 484.094 93.3476 484.982 94.1747 484.982Z" fill="#FCADAC"/>
<path opacity="0.3" d="M94.1747 484.982H95.9057C96.5796 484.982 97.1617 484.385 97.2843 483.574L107.946 409.441H99.8577L92.7961 483.084C92.7042 484.094 93.3476 484.982 94.1747 484.982Z" fill="black"/>
<path d="M71.9638 484.982H73.6947C74.3687 484.982 74.9508 484.385 75.0733 483.574L85.7346 409.441H77.6467L70.5852 483.084C70.4933 484.094 71.1366 484.982 71.9638 484.982Z" fill="#FCADAC"/>
<path opacity="0.3" d="M71.9638 484.982H73.6947C74.3687 484.982 74.9508 484.385 75.0733 483.574L85.7346 409.441H77.6467L70.5852 483.084C70.4933 484.094 71.1366 484.982 71.9638 484.982Z" fill="black"/>
<path d="M195.718 484.982H193.987C193.313 484.982 192.731 484.385 192.608 483.574L181.947 409.441H190.035L197.096 483.084C197.188 484.094 196.545 484.982 195.718 484.982Z" fill="#FCADAC"/>
<path opacity="0.3" d="M195.718 484.982H193.987C193.313 484.982 192.731 484.385 192.608 483.574L181.947 409.441H190.035L197.096 483.084C197.188 484.094 196.545 484.982 195.718 484.982Z" fill="black"/>
<path d="M217.929 484.982H216.198C215.524 484.982 214.942 484.385 214.819 483.574L204.158 409.441H212.246L219.307 483.084C219.399 484.094 218.756 484.982 217.929 484.982Z" fill="#FCADAC"/>
<path opacity="0.3" d="M217.929 484.982H216.198C215.524 484.982 214.942 484.385 214.819 483.574L204.158 409.441H212.246L219.307 483.084C219.399 484.094 218.756 484.982 217.929 484.982Z" fill="black"/>
<path d="M246.726 321.566H192.194C182.513 288.005 147.711 261.514 112.051 261.514H94.3432C57.0287 261.514 32.9488 290.53 40.5465 326.311C41.9405 332.876 44.3148 339.212 47.4856 345.196L56.079 397.275C57.1819 403.993 62.5585 409.441 68.0729 409.441H232.205C237.719 409.441 243.081 403.993 244.199 397.275L254.692 333.733C255.795 327.015 252.241 321.566 246.726 321.566Z" fill="#FCADAC"/>
<path opacity="0.5" d="M246.726 321.566H192.194C182.513 288.005 147.711 261.514 112.051 261.514H94.3432C57.0287 261.514 32.9488 290.53 40.5465 326.311C41.9405 332.876 44.3148 339.212 47.4856 345.196L56.079 397.275C57.1819 403.993 62.5585 409.441 68.0729 409.441H232.205C237.719 409.441 243.081 403.993 244.199 397.275L254.692 333.733C255.795 327.015 252.241 321.566 246.726 321.566Z" fill="white"/>
<path d="M239.603 77.499H227.089V79.0294H239.603V77.499Z" fill="#FCADAC"/>
<path d="M181.074 95.5424H179.542V88.0129C179.542 82.2127 184.26 77.5144 190.065 77.5144H217.99V79.0448H190.065C185.117 79.0448 181.074 83.0697 181.074 88.0129V95.5424Z" fill="#FCADAC"/>
<path d="M329.719 82.8555H190.05C187.207 82.8555 184.903 85.1577 184.903 87.9976V142.724C184.903 145.564 187.207 147.867 190.05 147.867H329.719C332.562 147.867 334.866 145.564 334.866 142.724V87.9976C334.866 85.1577 332.562 82.8555 329.719 82.8555Z" fill="#FCADAC"/>
<path d="M323.117 118.835H196.667C194.752 118.835 193.205 117.289 193.205 115.376C193.205 113.463 194.752 111.917 196.667 111.917H323.117C325.032 111.917 326.579 113.463 326.579 115.376C326.579 117.289 325.032 118.835 323.117 118.835Z" fill="white"/>
<path d="M296.05 133.205H196.667C194.752 133.205 193.205 131.66 193.205 129.747C193.205 127.834 194.752 126.288 196.667 126.288H296.05C297.965 126.288 299.512 127.834 299.512 129.747C299.512 131.66 297.965 133.205 296.05 133.205Z" fill="white"/>
<path d="M239.312 104.464H196.667C194.752 104.464 193.205 102.919 193.205 101.006C193.205 99.0928 194.752 97.5471 196.667 97.5471H239.312C241.227 97.5471 242.774 99.0928 242.774 101.006C242.774 102.919 241.227 104.464 239.312 104.464Z" fill="white"/>
<path d="M295.836 104.464H253.191C251.276 104.464 249.729 102.919 249.729 101.006C249.729 99.0928 251.276 97.5471 253.191 97.5471H295.836C297.751 97.5471 299.298 99.0928 299.298 101.006C299.298 102.919 297.751 104.464 295.836 104.464Z" fill="white"/>
<path d="M193.205 143.719V160.293C193.205 163.477 196.882 165.282 199.394 163.324L224.822 143.658L193.205 143.704V143.719Z" fill="#FCADAC"/>
<path d="M408.53 0.765137H268.876C266.027 0.765137 263.714 3.07603 263.714 5.92256V60.6341C263.714 63.4807 266.027 65.7762 268.861 65.7762H379.181L399.171 81.2332C401.698 83.1921 405.359 81.3863 405.359 78.203V65.7762H408.499C411.348 65.7762 413.661 63.4653 413.661 60.6188V5.92256C413.661 3.07603 411.348 0.765137 408.499 0.765137H408.53Z" fill="white"/>
<path d="M401.545 82.8249C400.549 82.8249 399.554 82.5035 398.726 81.8607L378.936 66.5568H268.876C265.613 66.5568 262.948 63.9092 262.948 60.6342V5.92262C262.948 2.66288 265.598 0 268.876 0H408.53C411.793 0 414.458 2.64758 414.458 5.92262V60.6342C414.458 63.8939 411.808 66.5568 408.53 66.5568H406.156V78.2184C406.156 79.9937 405.16 81.57 403.582 82.3505C402.939 82.6718 402.234 82.8249 401.545 82.8249ZM268.876 1.53039C266.456 1.53039 264.48 3.5046 264.48 5.92262V60.6342C264.48 63.0522 266.456 65.0264 268.876 65.0264H379.472L399.676 80.6517C400.626 81.3863 401.836 81.5087 402.908 80.9884C403.98 80.4528 404.624 79.4274 404.624 78.2337V65.0417H408.53C410.95 65.0417 412.926 63.0675 412.926 60.6495V5.92262C412.926 3.5046 410.95 1.53039 408.53 1.53039H268.876Z" fill="#FCADAC"/>
<path d="M335.724 36.7294H401.928C403.843 36.7294 405.39 35.1837 405.39 33.2707C405.39 31.3577 403.843 29.812 401.928 29.812H335.724C333.809 29.812 332.262 31.3577 332.262 33.2707C332.262 35.1837 333.809 36.7294 335.724 36.7294Z" fill="#FCADAC"/>
<path d="M289.494 36.7294H322.275C324.189 36.7294 325.736 35.1837 325.736 33.2707C325.736 31.3577 324.189 29.812 322.275 29.812H289.494C287.579 29.812 286.032 31.3577 286.032 33.2707C286.032 35.1837 287.579 36.7294 289.494 36.7294Z" fill="#FCADAC"/>
<path d="M302.53 51.0999L401.928 51.0999C403.84 51.0999 405.39 49.5513 405.39 47.6412C405.39 45.731 403.84 44.1825 401.928 44.1825L302.53 44.1825C300.618 44.1825 299.068 45.731 299.068 47.6412C299.068 49.5513 300.618 51.0999 302.53 51.0999Z" fill="#FCADAC"/>
<path d="M275.478 22.359H401.928C403.843 22.359 405.39 20.8133 405.39 18.9003C405.39 16.9873 403.843 15.4417 401.928 15.4417H275.478C273.563 15.4417 272.016 16.9873 272.016 18.9003C272.016 20.8133 273.563 22.359 275.478 22.359Z" fill="#FCADAC"/>
</g>
<defs>
<clipPath id="clip0_16_1036">
<rect width="594" height="499" fill="white"/>
</clipPath>
</defs>
</svg>
