<svg width="43" height="42" viewBox="0 0 43 42" fill="none" xmlns="http://www.w3.org/2000/svg">
<path d="M29.7417 10.185C28.517 8.81934 27.842 7.06551 27.8425 5.25H22.3063V26.95C22.2636 28.1243 21.756 29.2366 20.8904 30.0526C20.0249 30.8687 18.8689 31.3248 17.6659 31.325C15.1217 31.325 13.0075 29.295 13.0075 26.775C13.0075 23.765 15.9817 21.5075 19.0455 22.435V16.905C12.8642 16.1 7.45337 20.79 7.45337 26.775C7.45337 32.6025 12.3984 36.75 17.648 36.75C23.2738 36.75 27.8425 32.2875 27.8425 26.775V15.7675C30.0875 17.3422 32.7828 18.1871 35.5467 18.1825V12.775C35.5467 12.775 32.1784 12.9325 29.7417 10.185Z" fill="#010B40"/>
</svg>
