<svg width="43" height="42" viewBox="0 0 43 42" fill="none" xmlns="http://www.w3.org/2000/svg">
<path d="M40.2409 10.5C38.8614 11.1125 37.3743 11.515 35.8334 11.7075C37.4101 10.78 38.6284 9.31 39.2018 7.5425C37.7147 8.4175 36.0664 9.03 34.3284 9.38C32.913 7.875 30.9243 7 28.6668 7C24.4564 7 21.0164 10.36 21.0164 14.5075C21.0164 15.1025 21.088 15.68 21.2134 16.2225C14.8351 15.9075 9.15553 12.915 5.37511 8.3825C4.71219 9.485 4.33594 10.78 4.33594 12.145C4.33594 14.7525 5.67969 17.0625 7.75803 18.375C6.48594 18.375 5.30344 18.025 4.26428 17.5V17.5525C4.26428 21.1925 6.91594 24.2375 10.4276 24.92C9.30016 25.2214 8.11653 25.2633 6.96969 25.0425C7.45632 26.5343 8.40936 27.8397 9.69485 28.7751C10.9803 29.7105 12.5336 30.229 14.1364 30.2575C11.4195 32.3583 8.05185 33.4938 4.58678 33.4775C3.97761 33.4775 3.36844 33.4425 2.75928 33.3725C6.16344 35.5075 10.2126 36.75 14.5484 36.75C28.6668 36.75 36.4247 25.305 36.4247 15.3825C36.4247 15.05 36.4247 14.735 36.4068 14.4025C37.9118 13.3525 39.2018 12.0225 40.2409 10.5Z" fill="#010B40"/>
</svg>
